<?xml version="1.0" standalone="no"?>
<!DOCTYPE svg PUBLIC "-//W3C//DTD SVG 1.1//EN" "http://www.w3.org/Graphics/SVG/1.1/DTD/svg11.dtd" >
<svg xmlns="http://www.w3.org/2000/svg">
<metadata>Generated by IcoMoon</metadata>
<defs>
<font id="cepinfonts" horiz-adv-x="1024">
<font-face units-per-em="1024" ascent="960" descent="-64" />
<missing-glyph horiz-adv-x="1024" />
<glyph unicode="&#x20;" horiz-adv-x="512" d="" />
<glyph unicode="&#xe805;" glyph-name="display" d="M0 896v-640h1024v640h-1024zM960 320h-896v512h896v-512zM672 192h-320l-32-128-64-64h512l-64 64z" />
<glyph unicode="&#xe900;" glyph-name="bitmap" horiz-adv-x="2150" d="M418.243 565.668c-123.843-0.031-224.225-100.403-224.225-224.246 0-4.465 0.481-8.796 0.655-13.179h-0.512v-234.199c0-0.317-0.092-0.625-0.092-0.983 0-22.876 18.575-41.441 41.431-41.441 22.866 0 41.421 18.565 41.421 41.441 0 0.358-0.092 0.655-0.092 0.983v73.462c38.605-31.427 87.808-50.34 141.414-50.34 123.894 0 224.246 100.434 224.246 224.256 0.010 123.843-100.352 224.246-224.246 224.246zM547.625 267.039c-2.99-4.803-6.246-9.4-9.748-13.783-25.897-32.42-65.761-53.258-110.5-53.258-78.152 0-141.425 63.304-141.425 141.425 0 78.1 63.273 141.404 141.425 141.404 44.954 0.010 85.012-21.023 110.92-53.78 3.195-4.024 6.246-8.264 8.96-12.646 2.068-4.762 3.277-10.015 3.277-15.534 0-21.422-17.357-38.707-38.789-38.707-10.967 0-20.9 4.567-27.904 11.94-1.966 3.4-4.25 6.605-6.769 9.544-11.96 14.1-29.788 23.081-49.705 23.081-36.055 0-65.29-29.225-65.29-65.28 0-36.045 29.225-65.229 65.29-65.229 20.040 0 37.99 9.062 49.951 23.255 2.335 2.775 4.342 5.755 6.164 8.827 7.055 7.578 17.172 12.319 28.334 12.38 21.412 0 38.738-17.367 38.738-38.758 0.010-5.274-1.004-10.301-2.929-14.879zM747.878 421.304l-125.245 125.235c-52.296 52.285-124.539 84.695-204.319 84.644-79.841 0.051-152.084-32.307-204.38-84.613l-125.245-125.266c-20.439-20.439-33.096-48.681-33.096-79.862-0.051-31.222 12.657-59.505 33.096-79.862l71.997-72.018v151.839c0 142.295 115.333 257.638 257.628 257.638 142.275 0 257.587-115.343 257.587-257.638s-115.313-257.618-257.587-257.618c-38.932 0-75.663 8.899-108.749 24.34v-34.54c33.649-13.824 70.124-21.965 108.749-21.965 79.78-0.020 151.992 32.297 204.319 84.644l125.307 125.256c20.367 20.419 33.085 48.701 33.034 79.923 0 31.181-12.667 59.412-33.096 79.862zM644.045 621.793c-15.135-15.063-15.135-39.557 0-54.651v0c15.073-15.022 39.506-15.022 54.589 0l75.868 75.878c15.012 15.063 15.012 39.516 0 54.6v0c-15.104 15.104-39.578 15.104-54.589 0.031l-75.868-75.858zM192.983 621.322c15.053-15.073 15.053-39.496 0-54.6v0c-15.063-15.073-39.537-15.073-54.61 0l-75.868 75.868c-15.084 15.084-15.084 39.516 0 54.589v0c15.135 15.084 39.537 15.084 54.589 0l75.889-75.858zM379.668 698.542c0.020-21.32 17.316-38.615 38.646-38.646v0c21.299 0.020 38.554 17.336 38.574 38.646v107.233c0 21.33-17.285 38.615-38.574 38.605v0c-21.33 0-38.625-17.295-38.646-38.605v-107.233zM941.097 583.649c9.994-5.765 21.955-15.073 35.41-27.648 4.198-4.127 9.267-6.226 15.176-6.226 4.874 0 9.841 1.884 14.766 5.724 4.639 4.065 7.25 8.704 7.844 13.793 0.502 4.731-1.372 9.39-5.632 13.947-14.346 14.244-28.621 25.334-42.455 32.993-5.12 2.662-9.748 3.676-15.872 2.755-5.028-1.106-9.513-3.983-13.271-8.468-3.84-4.465-5.601-9.216-5.181-14.029 0.389-5.427 3.502-9.728 9.216-12.841zM1007.36 526.899c-2.632 3.482-6.625 5.816-12.472 6.973l-1.567 0.031c-4.69 0-9.001-1.096-12.974-3.328-4.403-2.714-7.741-6.932-9.994-12.8-6.666-22.886-16.097-44.145-28.16-63.242-10.168-16.66-23.388-33.915-39.188-51.159-4.762-4.854-7.148-9.912-7.055-14.612-0.369-3.441 0.481-8.468 6.82-13.435 3.697-2.222 7.895-3.308 12.411-3.308l1.935 0.082c5.509 1.065 10.66 3.953 15.268 8.694 13.793 14.264 27.453 32.584 40.407 54.405 12.39 19.917 24.34 45.476 35.543 76.001 1.987 5.827 1.71 10.977-0.973 15.698zM1115.197 440.832c-3.963 3.594-8.407 5.509-13.486 5.775-4.925 0-9.626-1.761-13.865-5.335-4.26-3.564-6.84-7.516-7.598-12.083-0.522-4.762 1.311-9.216 5.335-13.261 7.7-7.68 16.323-19.64 25.364-35.205 2.304-5.192 6.277-8.499 11.643-9.656 1.157-0.215 2.345-0.358 3.564-0.358 3.338 0 6.943 0.922 10.742 2.775 5.038 2.724 8.499 6.523 10.22 11.244 1.812 4.444 1.362 9.216-1.321 14.121-9.943 17.336-20.163 31.447-30.597 41.984zM1178.348 461.476c2.806-3.021 7.014-4.7 12.575-4.966h0.317c5.427 0.266 10.045 1.976 13.578 4.915 4.25 3.338 6.902 7.711 7.844 12.964l34.519 195.656c0.952 5.642-0.328 10.179-3.953 13.67-3.318 2.877-7.506 4.311-12.524 4.311-5.396 0-10.138-1.526-14.019-4.547-3.697-2.888-6.062-7.004-6.973-12.298l-34.529-195.604c-0.952-5.386 0.061-10.056 3.164-14.1zM961.741 673.71c9.902-5.734 21.852-15.043 35.389-27.628 4.209-4.127 9.267-6.257 15.094-6.257 4.905 0 9.82 1.946 14.807 5.775 4.639 4.035 7.24 8.673 7.834 13.763 0.502 4.721-1.372 9.39-5.642 13.967-14.326 14.223-28.58 25.303-42.394 32.963-3.983 2.068-8.008 3.082-12.032 3.082-1.198 0-2.447-0.092-3.85-0.287-5.059-1.157-9.544-3.994-13.251-8.479-3.891-4.444-5.652-9.216-5.233-14.029 0.389-5.407 3.492-9.697 9.277-12.872zM1093.519 464.415c2.202 6.4 4.342 13.957 6.4 22.661l24.535 139.336c1.004 5.458-0.041 10.035-3.205 13.752-2.806 2.99-6.881 4.639-12.472 4.946-4.905-0.307-9.175-1.833-12.943-4.772-3.594-3.246-6.001-7.506-7.24-12.79l-24.545-139.305c-0.85-4.731-2.038-9.308-3.533-13.578-1.966-5.581-4.465-10.998-7.537-16.353-1.659-3.891-4.577-8.468-8.745-13.67-4.27-5.437-8.612-10.004-13.015-13.619-4.731-4.055-9.964-7.997-15.38-11.643-3.656-2.263-7.987-4.659-13.24-7.26-4.045-2.222-7.721-3.922-11.080-5.14-5.97-2.345-10.465-5.765-13.578-10.496-2.007-4.465-2.447-8.94-1.188-13.978 2.028-4.639 5.417-7.741 9.984-9.175 1.946-0.686 3.983-1.055 6.134-1.055 3.133 0 6.523 0.696 9.779 1.997 2.703 0.819 7.537 2.939 14.93 6.564 6.431 3.154 13.292 7.393 20.173 12.534 5.499 3.645 11.336 8.315 17.285 13.742 4.813 4.598 9.882 10.281 15.012 16.916 5.386 7.045 10.281 14.449 14.592 21.965 4.055 7.506 6.943 13.455 8.878 18.422zM1308.068 712.223c-3.297 2.836-7.578 4.403-12.974 4.669-5.745-0.266-10.455-1.925-14.080-4.997-4.239-3.574-6.953-8.253-7.946-13.937l-47.974-272.005c-0.645-3.533-1.925-5.98-4.096-7.557-2.181-1.874-4.485-2.877-6.902-3.062-3.983-0.236-7.567-0.174-11.233 0.358-3.246 0.225-9.052 1.065-16.845 2.386-6.052 1.055-11.489 0.502-16.251-1.679-4.342-1.925-7.895-5.345-10.742-10.557-1.7-4.465-1.894-8.96-0.502-13.486l0.42-0.86c2.468-3.676 6.584-6.461 12.524-8.438 9.554-2.14 16.998-3.338 22.62-3.564 2.478-0.154 5.857-0.195 10.076-0.195 4.188 0 9.267 0.041 15.227 0.195 6.298 0.215 12.831 2.284 19.149 5.96 6.779 3.267 12.278 7.905 16.333 13.599 3.645 4.864 6.308 10.947 7.926 18.33l49.265 279.388c1.147 6.236-0.133 11.315-3.994 15.452zM1181.276 689.306c-4.547 5.499-10.619 8.243-18.084 8.243h-87.972c-7.035 0-13.855-2.488-20.46-7.373-6.4-4.997-10.26-11.008-11.459-17.92l-36.434-206.531c-1.065-5.96 0.082-10.885 3.43-14.838 2.847-3.011 7.363-4.567 13.527-4.567 5.386 0 10.25 1.495 14.735 4.782 3.604 3.502 6.031 7.956 7.301 13.435l33.649 190.976c0.276 2.57 1.26 4.403 3.031 5.591 2.079 1.352 4.372 1.976 6.912 1.976h46.879c2.642 0 4.628-0.543 6.246-1.833 1.188-0.86 1.505-2.703 1.014-5.56l-33.536-189.952c-1.024-5.96 0.133-10.885 3.717-15.073 3.318-2.877 7.68-4.332 12.902-4.332 5.683 0 10.619 1.495 15.145 4.782 3.625 3.564 6.042 7.987 7.301 13.435l36.639 207.995c1.27 6.943-0.338 12.667-4.485 16.763zM1683.855 689.797h-55.48l1.741 9.8c0.963 5.509-0.44 10.322-4.28 14.029-3.277 2.816-7.557 4.413-12.841 4.68-5.673 0-10.516-1.567-14.438-4.588-3.697-2.847-6.175-7.199-7.465-12.954l-1.956-10.967h-59.003c-6.472 0-12.36-2.171-17.459-6.328-1.075-0.87-2.099-1.731-3.031-2.662 0.236 0.655 0.42 1.29 0.532 1.935 0.942 5.284-0.184 9.667-3.318 13.015-2.816 3.052-7.127 4.577-12.8 4.577h-120.402c-5.755 0-10.486-1.556-14.295-4.721-3.564-3.256-5.919-7.148-7.025-11.725-1.167-6.615 1.157-10.772 3.297-13.076 2.785-2.97 7.148-4.608 13.107-4.946h3.43l-37.622-213.391c-4.045-0.205-7.803-0.532-11.203-0.891-5.765-0.276-10.906-2.488-15.247-6.564-3.707-3.625-5.919-7.977-6.42-12.923-0.696-5.499 1.034-10.281 5.048-13.844 3.041-2.693 7.383-3.994 12.677-3.994l1.7 0.020c20.685 1.618 47.718 5.253 80.558 10.783l-5.99-33.946c-1.055-5.96 0.092-10.916 3.707-15.084 3.256-2.836 7.496-4.413 12.595-4.7h0.358c5.693 0.287 10.465 1.925 14.008 4.905 4.557 3.584 7.363 8.202 8.335 13.66l7.496 42.568c4.987 1.26 9.615 2.478 13.926 3.697 6.83 1.864 11.653 4.966 14.469 9.605 1.925 4.157 2.775 8.888 2.499 13.875l-0.164 0.84c-1.475 4.516-4.137 8.049-8.284 10.711-3.881 2.007-9.503 2.14-15.237 0.666-0.072 0-0.184 0-0.276-0.020l34.222 193.987h5.765c5.571 0 10.23 1.751 13.967 5.089 0.297 0.328 0.645 0.594 0.911 0.881-0.389-1.147-0.614-2.304-0.748-3.441l-15.094-85.381c-1.475-6.83-0.246-13.036 3.686-18.473 3.277-4.577 8.581-7.209 15.974-7.752h153.846c6.943 0.266 13.517 2.755 19.497 7.383 6.339 4.936 10.26 10.803 11.776 17.551l15.084 85.658c0.778 6.195-0.84 11.459-5.018 15.964-4.884 4.321-11.346 6.492-19.118 6.492zM1415.885 505.395l-7.465-42.24c-5.898-0.87-11.817-1.833-17.654-2.847-5.622-0.655-10.988-1.495-15.995-2.335l8.366 47.411 32.748 0.010zM1430.538 588.472l-8.643-48.599h-32.645l8.581 48.599h32.707zM1444.178 665.866l-7.608-42.936h-32.686l7.537 42.936h32.758zM1574.359 606.054l-2.836-16.21h-42.916c-0.655 0-0.768 0.184-0.86 0.358l-0.236 0.86-0.184 0.143 2.601 14.848h44.431zM1535.744 639.109l2.714 15.677c0 0.451 0.594 0.952 0.993 1.229 0.625 0.512 1.3 0.748 2.109 0.748h41.759l-3.113-17.654h-44.462zM1656.33 590.93c-0.809-0.645-1.649-0.963-2.253-1.085h-43.377l2.908 16.21h46.008l-2.396-13.67c-0.051-0.399-0.246-0.942-0.891-1.454zM1668.352 655.38l-2.888-16.271h-46.019l3.133 17.654h44.462c-0.020 0 0.41-0.113 1.311-1.382zM1684.562 547.615h-200.212c-5.693 0-10.691-1.659-15.094-5.1-3.564-3.205-5.939-7.25-7.137-12.093-0.963-5.509 0.133-10.045 3.082-13.097 2.744-3.727 7.475-5.56 14.039-5.56h35l-13.967-25.375c-4.485-8.428-4.127-16.66 1.28-24.709 4.434-5.714 11.131-8.786 20.050-9.001h111.043c0.317 0 0.942-0.573 1.546-1.587 0.276-0.297 0.768-0.963 0-2.836-3.543-10.199-7.045-17.951-10.414-23.091-3.738-5.294-7.455-8.714-11.295-10.158-4.649-2.161-11.571-3.461-20.675-3.901-10.26-0.737-25.098 0-44.001 2.058-19.661 2.089-37.263 5.028-52.357 8.724-6.216 1.597-12.319 0.963-17.070-1.536-4.997-1.905-8.888-5.622-11.735-11.284-2.161-4.936-2.54-9.738-0.901-14.797 2.386-4.598 7.035-7.782 13.742-9.421 15.933-3.799 39.619-6.799 70.482-8.878 14.5-1.3 26.911-1.956 36.997-1.956 6.779 0 12.636 0.338 17.521 0.881 10.68 1.475 20.326 4.301 28.559 8.397 8.54 4.055 16.261 11.305 22.979 21.576 6.82 10.281 12.995 24.32 18.248 41.841 3.625 14.633 3.625 24.842-0.092 31.529-4.547 6.83-11.284 10.271-19.988 10.271h-104.325c-2.836 0.092-3.604 0.686-3.645 0.686 0 0.092-0.092 1.055 1.403 3.461l11.1 19.118h120.689c5.796 0 10.732 1.792 14.756 5.417 3.584 3.267 5.96 7.281 7.158 12.093 0.942 5.509-0.174 10.004-3.297 13.445-2.775 2.959-7.27 4.608-13.466 4.884zM2092.104 692.183c-5.243 5.868-12.319 8.847-21.094 8.847l-257.874 0.031c-8.1 0-15.954-2.847-23.194-8.468-7.311-5.642-11.704-12.472-13.066-20.347l-49.562-281.149c-1.065-5.96 0.041-10.906 3.656-15.084 3.359-2.898 7.66-4.301 12.892-4.301 5.765 0 10.752 1.638 15.094 5.079 3.625 3.256 6.113 7.598 7.363 13.097l6.676 37.775c0.799-1.096 1.853-2.212 3.205-3.338 3.471-2.335 7.301-3.502 11.438-3.502 0.768 0 1.608 0.061 2.591 0.184 4.905 0.778 9.882 3.441 14.797 7.977 17.295 17.418 35.072 39.117 52.859 64.645 3.543-8.929 7.178-18.77 10.977-29.317 1.884-5.356 5.222-9.032 9.667-10.711 3.85-1.761 8.643-1.71 14.295 0.266 3.42 1.29 6.38 3.174 8.724 5.683-6.543-7.567-13.343-15.145-20.49-22.733-4.372-4.372-6.738-9.134-6.973-13.978-0.481-4.68 1.464-8.827 5.98-12.605 3.758-2.437 7.946-3.738 12.38-3.738l1.802 0.102c4.905 1.075 9.8 3.82 14.715 8.325 18.278 18.616 37.089 41.759 55.91 68.854 4.106-10.322 8.305-21.586 12.595-33.495 1.884-5.417 5.181-9.032 9.656-10.732 3.922-1.741 8.663-1.679 14.244 0.297 5.233 1.925 9.196 5.263 11.899 10.025 1.925 3.676 2.355 8.335 1.116 14.203-7.578 21.914-15.575 42.148-23.757 60.303 16.364 28.006 32.522 62.239 47.954 101.745 2.273 5.868 2.222 11.1-0.451 15.739-2.529 3.809-6.431 6.287-12.063 7.465h-1.597c-4.639 0-8.94-1.096-12.943-3.308-4.454-2.755-7.741-6.83-9.943-12.37-8.131-24.484-18.033-48.179-29.481-70.441-5.192 10.076-10.721 19.395-16.538 27.73-3.297 4.485-7.506 7.107-12.319 7.649-4.864 0.84-9.8-0.266-14.182-3.246-4.454-2.755-7.537-6.38-9.339-11.192-1.126-4.68-0.297-9.38 2.662-14.193 8.376-12.892 17.183-28.928 26.214-47.626-12.585-19.958-27.965-40.458-45.885-61.327 0.758 0.932 1.454 1.884 2.058 2.929 1.905 3.768 2.284 8.397 1.044 14.223-7.025 20.47-14.418 39.444-22.118 56.433 15.421 26.511 30.31 58.276 44.339 94.392 2.304 5.827 2.222 11.039-0.451 15.729-2.509 3.748-6.431 6.226-12.114 7.414l-1.485 0.051c-4.731 0-9.032-1.106-13.005-3.359-4.444-2.734-7.803-6.84-9.923-12.319-7.424-21.873-16.118-42.854-25.897-62.474-6.042 11.233-12.124 21.627-18.156 30.986-3.277 4.485-7.496 7.086-12.349 7.66-4.905 0.86-9.759-0.287-14.152-3.267-4.403-2.714-7.475-6.328-9.359-11.182-1.137-4.639-0.236-9.39 2.724-14.254 9.083-13.711 18.401-31.13 27.802-51.743-16.415-26.173-38.093-53.535-64.502-81.306-0.041-0.031-0.061-0.082-0.133-0.113l36.352 206.234c0.358 2.068 1.608 3.953 3.666 5.683 2.161 1.649 4.588 2.488 7.506 2.488h227.185c1.792 0 3.277-0.655 4.485-1.751 0.963-1.065 1.475-2.468 1.495-3.84l-42.056-238.602c-0.932-5.274-3-8.878-6.298-10.834-1.065-0.717-3.338-1.556-7.823-1.556-6.973 0.236-15.319 1.597-24.975 4.157-5.939 1.075-11.438 0.573-16.681-1.659-4.342-1.946-7.926-5.519-10.742-10.844-2.202-5.1-2.345-9.82-0.297-14.121 2.396-4.598 6.779-7.7 13.199-9.144 16.036-2.836 31.16-3.963 44.585-3.564 9.39 0.266 17.306 2.048 23.265 5.243 12.298 5.601 19.814 14.582 22.262 26.706l46.776 265.452c1.034 7.537-1.239 14.684-6.84 21.33zM1031.864 207.677l-7.537 4.137c-0.43 0.215-0.891 0.358-1.341 0.358h-3.441c-0.563 0-1.137-0.195-1.638-0.532l-1.055-0.778c-11.315-7.649-22.897-11.581-34.376-11.581-6.492 0-12.954 1.239-18.483 3.461-16.548 8.98-22.825 20.265-19.743 35.82l0.174 1.065c1.137 5.816 3.318 11.1 6.369 15.565 13.23 17.582 29.133 26.102 48.671 26.102h1.382c11.151 0 20.664-3.758 28.355-11.284l0.788-0.737c0.563-0.522 1.28-0.799 1.987-0.799h1.29c3.256 0 7.066 1.597 11.971 4.977l3.052 2.079c0.901 0.625 1.495 1.72 1.618 2.959 0.113 1.26-0.276 2.499-1.055 3.318l-2.038 2.202c-11.090 12.278-25.211 18.504-41.933 18.504h-5.56c-11.54 0-23.992-3.523-37.12-10.557-21.842-13.261-34.765-29.44-38.41-48.118l-0.952-4.905c-1.946-9.953-0.635-20.326 4.178-31.314 11.213-19.569 28.652-29.522 51.835-29.522h0.963c18.319 0 35.359 6.113 50.678 18.115l1.044 0.84c0.717 0.563 1.239 1.444 1.403 2.406l0.727 3.799c0.348 1.782-0.44 3.645-1.802 4.424zM1139.077 206.438l-1.229 0.922c-0.512 0.358-1.065 0.563-1.679 0.563h-2.314c-0.44 0-0.881-0.102-1.3-0.297l-0.717-0.42c-23.757-11.622-45.24-10.004-59.208 3-5.366 6.892-8.346 13.435-8.919 19.436h107.459c0.635 0 1.249 0.236 1.772 0.645l3.338 2.58c0.676 0.563 1.198 1.403 1.403 2.386l1.065 5.376c2.335 11.756 0.338 23.521-6.042 35.215-11.479 17.347-27.576 26.163-47.882 26.163h-5.499c-11.54 0-23.921-3.523-36.936-10.516-21.873-13.261-34.775-29.379-38.298-47.821l-1.014-4.977c-1.946-10.158-0.573-20.541 4.25-31.222 11.162-19.497 28.508-29.379 51.661-29.379h0.932c14.95 0 29.071 4.116 42.301 12.554l1.475 1.26c0.635 0.543 1.096 1.362 1.28 2.284l0.502 2.673c0.276 1.382-0.082 2.785-0.963 3.768l-5.437 5.806zM1068.718 250.9c0.522 1.044 1.096 2.14 1.72 3.215 13.189 17.981 29.235 26.706 49.039 26.706h1.352c9.226 0 17.992-2.847 25.487-8.079 7.455-7.608 11.397-14.961 11.837-21.862l-89.436 0.020zM1345.536 269.578l-2.478 2.744c-0.604 0.645-1.382 1.004-2.181 1.004h-10.025c-0.614 0-1.167-0.184-1.679-0.563l-3.645-2.662c-0.737-0.543-1.28-1.423-1.495-2.437l-16.026-82.104c-0.256-1.444 0.154-2.959 1.096-3.881l2.662-2.683c0.594-0.594 1.321-0.901 2.079-0.901h9.923c0.635 0 1.219 0.205 1.741 0.604l3.594 2.683c0.748 0.563 1.26 1.423 1.475 2.437l15.985 81.961c0.236 1.403-0.164 2.836-1.024 3.799zM1337.477 274.125c7.578 0 14.612 5.642 15.995 12.861 0.666 3.4 0.051 6.697-1.731 9.359-2.212 3.318-6.011 5.253-10.383 5.253-7.598 0-14.643-5.652-16.036-12.82-0.645-3.318-0.061-6.615 1.7-9.257 2.263-3.42 6.062-5.396 10.455-5.396zM1309.85 275.261c-11.295 17.183-27.238 25.938-47.493 25.938h-5.417c-11.459 0-23.736-3.482-36.71-10.424-21.74-13.179-34.55-29.225-38.072-47.616l-11.305-57.702c-0.266-1.382 0.113-2.816 0.993-3.779l2.314-2.56c0.594-0.645 1.403-1.024 2.212-1.024h9.103c0.604 0 1.219 0.205 1.741 0.625l3.338 2.54c0.717 0.543 1.229 1.423 1.444 2.417l2.212 11.622c10.813-11.438 25.068-17.203 42.506-17.203h0.901c10.22 0 20.552 2.161 30.761 6.441 26.757 12.564 42.639 30.72 47.391 54.784 2.447 12.462 0.532 24.484-5.919 35.942zM1294.664 241.121c-0.932-4.721-3.041-10.179-5.796-15.258-13.681-17.94-29.583-26.665-48.66-26.665-6.318 0-12.687 1.219-18.084 3.379-16.343 8.837-22.559 20.019-19.661 35.103l0.266 1.239c1.188 6.021 3.348 11.223 6.339 15.442 12.964 17.295 28.631 25.723 47.985 25.723h1.372c5.642 0 11.96-1.362 17.879-3.666 15.421-9.175 21.268-20.357 18.36-35.297zM1498.204 267.305c-0.44 1.065-0.952 2.14-1.761 3.594-13.343 20.204-32.072 30.474-55.716 30.474h-6.441c-13.568 0-28.058-4.096-43.223-12.237-11.162-6.84-20.439-14.418-27.699-22.723l-0.563-0.676c-8.704-10.035-14.285-20.92-16.497-32.399l-9.318-47.78c-0.297-1.464 0.143-3 1.075-3.922l2.703-2.621c0.614-0.594 1.321-0.881 2.058-0.881h10.045c0.604 0 1.188 0.205 1.731 0.625l3.574 2.683c0.717 0.543 1.219 1.423 1.434 2.417l8.796 45.076c1.464 6.963 4.065 13.261 7.68 18.586 15.964 21.053 35.082 31.232 58.522 31.232h1.618c7.076 0 14.797-1.597 21.924-4.413 18.34-10.885 25.58-24.105 22.825-41.492l-9.247-47.309c-0.276-1.475 0.164-3 1.137-3.953l2.724-2.621c0.614-0.563 1.321-0.86 2.038-0.86h10.056c0.625 0 1.219 0.215 1.731 0.614l3.594 2.683c0.707 0.573 1.249 1.434 1.444 2.437l8.817 45.22c2.304 11.735 1.065 23.368-3.533 34.365l-1.526 3.881zM1531.863 205.199c-7.578 0-14.572-5.663-15.985-12.82-0.655-3.338-0.061-6.636 1.659-9.277 2.263-3.441 6.093-5.376 10.496-5.376 7.475 0 14.5 5.601 16.005 12.861 0.635 3.379 0 6.697-1.772 9.339-2.191 3.359-5.99 5.274-10.404 5.274zM2068.419 263.342l-0.85 2.58c-0.666 1.577-1.321 3.103-2.365 4.977-13.414 20.183-32.164 30.444-55.736 30.444h-6.482c-13.537 0-28.027-4.096-43.203-12.257-2.15-1.382-4.301-2.744-6.359-4.106-11.878 10.875-26.634 16.394-43.837 16.394h-6.441c-13.558 0-28.078-4.096-43.305-12.237-11.069-6.799-20.296-14.377-27.668-22.774l-0.492-0.645c-8.755-10.076-14.295-21.012-16.456-32.399l-9.38-47.78c-0.276-1.454 0.164-2.959 1.096-3.932l2.724-2.621c0.584-0.584 1.3-0.881 2.038-0.881h10.004c0.625 0 1.219 0.215 1.741 0.635l3.594 2.683c0.717 0.553 1.229 1.413 1.434 2.417l8.858 45.107c1.382 6.932 4.055 13.394 7.649 18.575 15.892 21.023 35.011 31.201 58.511 31.201h1.628c7.045 0 14.776-1.577 21.873-4.403 5.079-3.041 9.329-6.318 12.708-9.8 1.956-1.976 3.574-3.86 4.813-5.745 5.12-7.557 6.922-16.374 5.356-25.938l-9.277-47.319c-0.297-1.464 0.164-3 1.137-3.942l2.744-2.621c0.563-0.573 1.28-0.86 2.017-0.86h10.076c0.604 0 1.198 0.205 1.741 0.625l3.564 2.683c0.707 0.543 1.219 1.423 1.444 2.417l8.776 45.179c2.355 11.796 1.167 23.439-3.492 34.376l-0.87 2.488c-0.297 0.778-0.645 1.536-1.065 2.365 10.926 6.953 23.255 10.455 36.721 10.455h1.597c7.055 0 14.807-1.597 21.965-4.403 18.319-10.895 25.539-24.136 22.774-41.482l-9.226-47.319c-0.297-1.464 0.164-3 1.126-3.963l2.755-2.621c0.584-0.553 1.28-0.84 2.028-0.84h10.076c0.614 0 1.229 0.205 1.741 0.625l3.543 2.683c0.707 0.563 1.208 1.423 1.434 2.417l8.817 45.22c2.284 11.848 1.055 23.501-3.594 34.345zM1667.564 207.698l-7.7 4.116c-0.42 0.215-0.87 0.358-1.321 0.358h-3.379c-0.573 0-1.137-0.215-1.638-0.594l-1.034-0.717c-11.274-7.649-22.866-11.581-34.406-11.581-6.482 0-12.943 1.239-18.412 3.461-16.568 8.98-22.845 20.265-19.804 35.717l0.215 1.188c1.126 5.775 3.287 11.059 6.339 15.534 13.22 17.592 29.184 26.112 48.722 26.112h1.362c11.141 0 20.685-3.758 28.406-11.305l0.809-0.717c0.584-0.522 1.249-0.799 1.935-0.799h1.28c3.256 0 7.178 1.659 11.878 4.997l3.062 2.028c0.901 0.614 1.495 1.679 1.638 2.918 0.123 1.26-0.225 2.478-0.993 3.318l-2.007 2.263c-11.121 12.278-25.242 18.514-42.004 18.514h-5.53c-11.581 0-24.033-3.523-37.151-10.557-21.862-13.261-34.775-29.44-38.441-48.087l-0.963-4.977c-1.946-10.004-0.563-20.419 4.239-31.263 11.192-19.579 28.621-29.522 51.845-29.522h0.963c18.258 0 35.297 6.103 50.637 18.104l1.065 0.84c0.707 0.543 1.188 1.362 1.413 2.324l0.768 3.799c0.41 1.843-0.379 3.748-1.792 4.526zM1807.401 275.261c-11.336 17.203-27.341 25.938-47.575 25.938h-5.335c-11.489 0-23.777-3.482-36.741-10.424-21.74-13.179-34.58-29.225-38.185-47.616l-0.952-4.915c-1.864-9.984-0.461-20.265 4.311-30.935 11.059-19.374 28.334-29.215 51.302-29.215h0.86c10.22 0 20.5 2.161 30.72 6.441 26.778 12.575 42.66 30.72 47.401 54.794 2.458 12.472 0.563 24.494-5.806 35.932zM1792.164 241.121c-0.881-4.659-3-10.097-5.734-15.258-13.742-17.94-29.686-26.665-48.773-26.665-6.308 0-12.677 1.219-18.115 3.379-16.333 8.878-22.508 20.060-19.528 35.318l0.205 1.024c1.178 6.021 3.338 11.223 6.298 15.442 13.025 17.295 28.744 25.723 48.005 25.723h1.423c5.581 0 11.899-1.362 17.838-3.666 15.442-9.175 21.32-20.398 18.381-35.297z" />
<glyph unicode="&#xe901;" glyph-name="ic_add" d="M512 938.667c-270.571 0-490.667-220.117-490.667-490.645 0-270.571 220.096-490.688 490.667-490.688 270.592 0 490.667 220.117 490.667 490.688 0 270.528-220.075 490.645-490.667 490.645v0zM512 9.088c-242.048 0-438.933 196.885-438.933 438.933 0 242.005 196.885 438.891 438.933 438.891s438.933-196.885 438.933-438.891c0-242.069-196.885-438.933-438.933-438.933v0zM697.067 483.307h-150.101v149.781c0 14.293-20.203 25.877-34.517 25.877-14.272 0-34.475-11.584-34.475-25.877v-149.781h-151.019c-14.293 0-25.877-20.224-25.877-34.496s11.584-34.475 25.877-34.475h151.019v-151.424c0-14.293 20.203-25.877 34.475-25.877 14.293 0 34.517 11.584 34.517 25.877v151.424h150.101c14.272 0 25.899 20.203 25.899 34.475s-11.584 34.496-25.899 34.496v0z" />
<glyph unicode="&#xe902;" glyph-name="ic_additional" d="M1002.667 775.104c0 90.325-73.259 163.563-163.563 163.563h-654.208c-90.325 0-163.563-73.237-163.563-163.563v-654.229c0-90.325 73.237-163.541 163.563-163.541h654.208c90.304 0 163.563 73.216 163.563 163.541v654.229zM920.789 149.632c0-61.632-49.92-111.552-111.552-111.552h-595.627c-61.611 0-111.531 49.941-111.531 111.552v595.648c0 61.589 49.92 111.531 111.531 111.531h595.669c61.589 0 111.531-49.941 111.531-111.531l-0.021-595.648zM248.235 516.224c-37.803 0-68.459-30.677-68.459-68.48s30.656-68.48 68.459-68.48c37.824 0 68.48 30.677 68.48 68.48s-30.656 68.48-68.48 68.48v0zM512.341 516.224c-37.803 0-68.459-30.677-68.459-68.48s30.656-68.48 68.459-68.48 68.48 30.677 68.48 68.48-30.677 68.48-68.48 68.48v0zM776.448 516.224c-37.803 0-68.459-30.677-68.459-68.48s30.656-68.48 68.459-68.48c37.781 0 68.459 30.677 68.459 68.48s-30.656 68.48-68.459 68.48v0z" />
<glyph unicode="&#xe903;" glyph-name="ic_arrowdown" d="M768 576l-256-256-256 256h512z" />
<glyph unicode="&#xe904;" glyph-name="ic_arrowleft" d="M720.704-29.952c-20.139-15.701-45.419-17.045-56.448-2.944l-358.741 459.947c-2.496 3.179-8.64 13.397-10.56 15.147-18.944 17.131-24.619 41.771-12.651 55.061l390.635 433.152c12.011 13.291 37.099 10.219 56.085-6.912s24.64-41.771 12.651-55.104l-355.456-394.24 351.083-450.069c10.987-14.144 3.584-38.336-16.597-54.037v0z" />
<glyph unicode="&#xe905;" glyph-name="ic_arrowright" d="M303.275 925.931c20.16 15.723 45.44 17.045 56.448 2.944l358.784-459.947c2.475-3.179 8.597-13.397 10.539-15.125 18.965-17.131 24.619-41.771 12.629-55.061l-390.592-433.152c-12.011-13.248-37.12-10.219-56.107 6.933s-24.619 41.771-12.651 55.104l355.477 394.219-351.083 450.069c-11.029 14.144-3.584 38.336 16.555 54.016v0z" />
<glyph unicode="&#xe906;" glyph-name="ic_arrowup" d="M989.909 239.296c-15.659-20.117-39.851-27.605-53.995-16.576l-450.091 351.083-394.219-355.52c-13.333-12.011-37.973-6.293-55.104 12.693-17.152 18.987-20.203 44.053-6.933 56.085l433.173 390.635c13.291 12.011 37.931 6.315 55.061-12.629 1.749-1.941 11.968-8.085 15.147-10.56l459.947-358.805c14.101-10.987 12.779-36.267-2.987-56.405v0z" />
<glyph unicode="&#xe907;" glyph-name="ic_calendar" d="M884.203-42.667h-744.469c-37.376 0-67.691 30.336-67.691 67.691v744.448c0 37.397 30.315 67.669 67.691 67.669h67.669v-33.835c0-56.064 45.461-101.525 101.525-101.525 56.043 0 101.525 45.461 101.525 101.525v33.835h203.072v-33.835c0-56.064 45.483-101.525 101.525-101.525s101.504 45.461 101.504 101.525v33.835h67.755c37.333 0 67.669-30.272 67.669-67.669v-744.448c-0.107-37.355-30.443-67.691-67.776-67.691v0zM884.203 600.277h-744.469v-575.253h744.469v575.253zM308.907 431.083h-101.483v101.525h101.525l-0.043-101.525zM308.907 261.867h-101.483v101.547h101.525l-0.043-101.547zM308.907 92.715h-101.483v101.504h101.525l-0.043-101.504zM478.123 431.083h-101.504v101.525h101.504v-101.525zM478.123 261.867h-101.504v101.547h101.504v-101.547zM478.123 92.715h-101.504v101.504h101.504v-101.504zM647.339 431.083h-101.547v101.525h101.547v-101.525zM647.339 261.867h-101.547v101.547h101.547v-101.547zM647.339 92.715h-101.547v101.504h101.547v-101.504zM816.491 431.083h-101.504v101.525h101.504v-101.525zM816.491 261.867h-101.504v101.547h101.504v-101.547zM816.491 92.715h-101.504v101.504h101.504v-101.504zM713.963 735.637c-36.843 0-66.624 29.824-66.624 66.624v69.781c0 36.821 29.781 66.624 66.624 66.624 36.8 0 66.624-29.803 66.624-66.624v-69.781c0-36.779-29.845-66.624-66.624-66.624v0zM307.904 735.637c-36.843 0-66.624 29.824-66.624 66.624v69.781c0 36.821 29.781 66.624 66.624 66.624 36.821 0 66.624-29.803 66.624-66.624v-69.781c0-36.779-29.867-66.624-66.624-66.624v0z" />
<glyph unicode="&#xe908;" glyph-name="ic_camera" d="M510.741 511.957c-70.293 0-127.552-57.216-127.552-127.509s57.259-127.531 127.552-127.531c70.293 0 127.531 57.237 127.531 127.531 0 70.251-57.237 127.509-127.531 127.509v0zM875.093 698.219h-147.2c0 70.507-57.109 127.573-127.552 127.573h-176.619c-70.507 0-127.573-57.109-127.573-127.573h-147.2c-70.507 0-127.616-57.109-127.616-127.552v-372.907c0-70.464 57.109-127.552 127.573-127.552h726.187c70.549 0 127.573 57.088 127.573 127.552v372.907c0 70.443-57.109 127.552-127.573 127.552v0zM512 158.507c-124.459 0-225.707 101.248-225.707 225.707 0 124.437 101.248 225.707 225.707 225.707s225.707-101.248 225.707-225.707-101.248-225.707-225.707-225.707v0z" />
<glyph unicode="&#xe909;" glyph-name="ic_change" d="M978.133 775.125c-8.171 0-24.469 0-32.704-8.213v0l-57.259-40.875c-89.963 114.475-228.971 196.245-384.363 196.245-269.867 0-482.496-212.565-482.496-474.283 0-261.675 212.651-474.283 482.517-474.283 196.245 0 368 122.667 441.579 286.208 8.213 8.213 16.384 24.533 16.384 40.917 0 32.683-24.533 57.301-57.259 57.301-24.512 0-40.875-16.427-49.045-32.704v0c-49.088-139.115-188.096-237.205-343.488-237.205-204.437 0-368 163.563-368 359.829 0 204.416 163.563 359.787 368 359.787 122.667 0 237.163-65.365 302.592-155.371h8.171l-89.92-57.28c-8.192-8.171-16.384-16.384-16.384-24.533-8.171-16.363 8.192-32.683 24.533-40.875h24.469l179.947-24.491h8.213c16.384 0 24.533 8.192 32.704 16.363v8.213l16.363 212.651c-0.021 16.235-8.192 32.597-24.555 32.597v0 0z" />
<glyph unicode="&#xe90a;" glyph-name="ic_clock" d="M512 938.667c-270.997 0-490.667-219.669-490.667-490.667 0-270.976 219.669-490.667 490.667-490.667 270.976 0 490.667 219.691 490.667 490.667 0 270.997-219.691 490.667-490.667 490.667v0zM512 22.741c-234.859 0-425.259 190.4-425.259 425.259s190.4 425.259 425.259 425.259 425.259-190.4 425.259-425.259-190.4-425.259-425.259-425.259v0zM724.608 415.296h-212.608v212.629c0 9.045-7.317 16.384-16.363 16.384h-32.725c-9.024 0-16.363-7.339-16.363-16.384v-261.696c0-9.045 7.339-16.363 16.363-16.363h261.717c9.045 0 16.384 7.317 16.384 16.363v32.704c-0.064 9.045-7.339 16.363-16.405 16.363v0z" />
<glyph unicode="&#xe90b;" glyph-name="ic_close" d="M978.709 96.917c31.936-31.936 31.936-83.691 0-115.627-15.979-15.979-36.907-23.957-57.835-23.957-20.907 0-41.835 7.979-57.813 23.957l-351.061 351.061-351.083-351.083c-15.957-15.957-36.885-23.936-57.813-23.936s-41.856 7.979-57.813 23.936c-31.957 31.957-31.957 83.712 0 115.648l351.083 351.083-351.083 351.061c-31.936 31.957-31.936 83.691 0 115.627 31.957 31.957 83.691 31.957 115.627 0l351.083-351.061 351.061 351.061c31.936 31.957 83.712 31.957 115.648 0 31.936-31.936 31.936-83.691 0-115.627l-351.061-351.061 351.061-351.083z" />
<glyph unicode="&#xe90c;" glyph-name="ic_collect_null" d="M1002.667 558.144l-339.051 49.28-151.616 307.221-151.616-307.221-339.051-49.28 245.333-239.125-57.92-337.664 303.253 159.424 303.253-159.424-57.92 337.664 245.333 239.125zM512 199.467l-230.72-123.413 44.053 261.419-186.667 185.152 257.963 38.144 115.371 237.867 115.371-237.867 257.963-38.144-186.667-185.152 44.053-261.419-230.72 123.413z" />
<glyph unicode="&#xe90d;" glyph-name="ic_collect" d="M512 140.779l-303.253-159.424 57.92 337.664-245.333 239.125 339.051 49.28 151.616 307.221 151.616-307.221 339.051-49.28-245.333-239.125 57.92-337.664z" />
<glyph unicode="&#xe90e;" glyph-name="ic_collection" d="M508.885 938.667c-270.187 0-487.552-220.48-487.552-490.667 0-270.165 220.48-490.667 490.667-490.667 270.165 0 490.667 220.501 490.667 490.667-3.115 270.187-223.573 490.667-493.781 490.667v0zM720.064 137.451l-211.157 127.317-211.179-127.317 52.8 239.125-183.211 164.587 245.333 21.76 96.277 226.688 96.277-226.688 245.333-21.76-186.325-161.472 55.851-242.24z" />
<glyph unicode="&#xe90f;" glyph-name="ic_company" d="M95.339 883.115h37.141v-833.195h-37.141v833.195zM502.677 883.115h37.163v-833.195h-37.163v833.195zM21.333 49.984h981.333v-37.141h-981.333v37.141zM95.403 883.157h444.459v-37.141h-444.459v37.141zM947.115 49.92h-37.12v583.659l37.12-9.685v-573.973zM909.995 633.579v-38.272l-370.176 96.576v38.208l370.176-96.512zM187.968 734.976h20.011v-111.083h-20.011v111.083zM279.061 734.976h20.011v-111.083h-20.011v111.083zM187.968 734.976h111.104v-19.989h-111.104v19.989zM187.968 643.904h111.104v-20.011h-111.104v20.011zM336.107 734.976h20.011v-111.083h-20.011v111.083zM427.2 734.976h20.011v-111.083h-20.011v111.083zM336.107 734.976h111.083v-19.989h-111.083v19.989zM336.107 643.904h111.083v-20.011h-111.083v20.011zM187.968 586.859h20.011v-111.104h-20.011v111.104zM279.061 586.859h20.011v-111.104h-20.011v111.104zM187.968 586.859h111.104v-20.011h-111.104v20.011zM187.968 495.744h111.104v-20.011h-111.104v20.011zM336.107 586.859h20.011v-111.104h-20.011v111.104zM427.2 586.859h20.011v-111.104h-20.011v111.104zM336.107 586.859h111.083v-20.011h-111.083v20.011zM336.107 495.744h111.083v-20.011h-111.083v20.011zM187.968 438.741h20.011v-111.104h-20.011v111.104zM279.061 438.741h20.011v-111.104h-20.011v111.104zM187.968 438.741h111.104v-20.011h-111.104v20.011zM187.968 347.648h111.104v-20.011h-111.104v20.011zM336.107 438.741h20.011v-111.104h-20.011v111.104zM427.2 438.741h20.011v-111.104h-20.011v111.104zM336.107 438.741h111.083v-20.011h-111.083v20.011zM336.107 347.648h111.083v-20.011h-111.083v20.011zM187.968 290.603h20.011v-111.083h-20.011v111.083zM279.061 290.603h20.011v-111.083h-20.011v111.083zM187.968 290.603h111.104v-20.011h-111.104v20.011zM187.968 199.552h111.104v-20.011h-111.104v20.011zM336.107 290.603h20.011v-111.083h-20.011v111.083zM427.2 290.603h20.011v-111.083h-20.011v111.083zM336.107 290.603h111.083v-20.011h-111.083v20.011zM336.107 199.552h111.083v-20.011h-111.083v20.011zM595.285 586.859h20.011v-111.104h-20.011v111.104zM686.421 586.859h20.011v-111.104h-20.011v111.104zM595.285 586.859h111.083v-20.011h-111.083v20.011zM595.285 495.744h111.083v-20.011h-111.083v20.011zM763.435 475.755h-19.968v111.104l20.011-6.677-0.043-104.427zM854.592 475.755h-20.032v80.725l20.011-6.677v-74.048zM834.56 556.48v-19.499l-71.125 23.68v19.52l71.125-23.701zM743.467 495.744h111.083v-20.011h-111.083v20.011zM595.285 438.699h20.011v-111.083h-20.011v111.083zM686.421 438.699h20.011v-111.083h-20.011v111.083zM595.285 438.699h111.083v-19.989h-111.083v19.989zM595.285 347.627h111.083v-20.011h-111.083v20.011zM743.467 438.699h20.011v-111.083h-20.011v111.083zM834.56 438.699h20.011v-111.083h-20.011v111.083zM743.467 438.699h111.083v-19.989h-111.083v19.989zM743.467 347.627h111.083v-20.011h-111.083v20.011zM595.285 290.603h20.011v-111.083h-20.011v111.083zM686.421 290.603h20.011v-111.083h-20.011v111.083zM595.285 290.603h111.083v-20.011h-111.083v20.011zM595.285 199.552h111.083v-20.011h-111.083v20.011zM743.467 290.603h20.011v-111.083h-20.011v111.083zM834.56 290.603h20.011v-111.083h-20.011v111.083zM743.467 290.603h111.083v-20.011h-111.083v20.011zM743.467 199.552h111.083v-20.011h-111.083v20.011z" />
<glyph unicode="&#xe910;" glyph-name="ic_copy" d="M402.965 338.965h381.653v-54.528h-381.653v54.528zM402.965 502.549h381.653v-54.549h-381.653v54.549zM757.333 938.667h-490.667c-26.048 0-54.549-26.325-54.549-54.528v-81.771h-136.256c-26.475 0-54.528-28.032-54.528-54.485v-736c0-26.56 26.325-54.549 54.528-54.549h681.472c27.285 0 54.549 28.885 54.549 54.549v81.749h136.299c27.285 0 54.549 27.136 54.549 54.549v544.448l-245.397 246.037zM757.333 856.896l163.541-163.563h-163.541v163.563zM757.333 11.883h-681.472v736h136.299v-599.723c0-28.181 28.075-54.549 54.549-54.549h490.624v-81.728zM948.117 148.117h-681.451v736h436.117v-190.784c0-24.491 25.877-54.528 54.549-54.528h190.784v-490.688z" />
<glyph unicode="&#xe911;" glyph-name="ic_data" d="M1002.667 448c0 270.933-219.733 490.667-490.667 490.667s-490.667-219.733-490.667-490.667 219.733-490.667 490.667-490.667c110.912 0 213.333 38.421 294.4 100.267 4.267 4.267 6.4 8.512 6.4 14.933 0 12.8-10.667 21.333-21.333 21.333-6.4 0-12.8-2.197-14.912-6.421v0c-74.667-53.333-164.203-87.509-262.357-87.509-247.531 0.064-445.931 198.485-445.931 443.797 0 245.355 198.4 445.867 443.733 445.867s443.733-198.4 443.733-443.733c0-74.667-17.067-145.067-51.179-206.933v0c0-2.155-2.155-4.267-2.155-6.4 0-12.885 10.667-21.333 21.333-21.333 8.533 0 17.067 6.4 19.2 14.912v0c38.4 64.064 59.733 140.821 59.733 221.888v0 0zM733.824 232.533v0c0 2.133 0 2.133 0 0 0 2.133 0 2.133-2.176 4.245-23.467 66.155-66.133 113.088-132.203 138.667 51.136 29.803 85.333 85.333 85.333 149.333 0 96-76.864 172.8-172.864 172.8s-172.821-76.8-172.821-172.8c0-64 34.155-119.488 85.333-149.333-64-25.579-108.8-76.864-130.133-140.864v-2.197c0-2.155 0-2.155-2.133-2.155v0-2.155c0-10.667 8.512-17.045 17.067-17.045 8.512 0 14.912 4.224 17.067 10.667 29.867 74.667 102.4 128 187.733 128s160-55.552 187.691-130.219v0-2.176c2.197-6.421 8.512-8.491 14.912-8.491 10.667 0 17.088 8.491 17.088 17.109v6.613h0.107zM379.733 524.821c0 72.512 59.733 132.245 132.267 132.245 72.491 0 132.267-59.733 132.267-132.245 0-72.533-59.776-132.288-132.267-132.288-72.533 2.133-132.267 59.733-132.267 132.288v0 0z" />
<glyph unicode="&#xe912;" glyph-name="ic_default" d="M832 874.667h-640c-58.901 0-106.667-47.744-106.667-106.667v-640c0-58.901 47.765-106.667 106.667-106.667h640c58.923 0 106.667 47.765 106.667 106.667v640c0 58.901-47.744 106.667-106.667 106.667zM866.368 182.208c0-48.939-39.637-88.576-88.555-88.576h-531.605c-48.939 0-88.576 39.637-88.576 88.576v531.605c0 48.939 39.637 88.597 88.576 88.597h531.605c48.917 0 88.555-39.659 88.555-88.597v-531.605z" />
<glyph unicode="&#xe913;" glyph-name="ic_degree" d="M984.939 627.435l-464.811 154.901c-5.312 1.771-11.051 1.771-16.32 0l-464.811-154.901c-10.539-3.52-17.664-13.376-17.664-24.491s7.125-20.949 17.664-24.448l137.28-45.781v-136.32c0-6.869 2.731-13.44 7.552-18.261 4.544-4.587 113.323-110.891 328.171-110.891 78.123 0 150.997 14.037 216.619 41.792 13.12 5.547 19.285 20.736 13.76 33.835-5.525 13.12-20.715 19.243-33.813 13.76-59.221-25.067-125.355-37.717-196.523-37.717-100.459 0-174.357 26.027-218.667 47.829-32.789 16.171-54.741 32.448-65.387 41.259v107.477l275.904-91.989c2.645-0.875 5.419-1.344 8.171-1.344 2.731 0 5.525 0.448 8.171 1.344l275.883 91.989v-46.059c-30.037-10.645-51.627-39.339-51.627-73.003 0-31.552 18.944-58.731 46.037-70.784l-45.291-181.163c-1.963-7.659-0.256-15.915 4.715-22.165 4.885-6.251 12.373-9.92 20.331-9.92h103.317c7.957 0 15.445 3.669 20.352 9.92 4.885 6.251 6.613 14.507 4.715 22.165l-45.312 181.163c27.115 12.053 46.080 39.253 46.080 70.784 0 33.664-21.611 62.357-51.648 73.003v63.339l137.28 45.781c10.475 3.413 17.6 13.312 17.6 24.405s-7.125 20.949-17.664 24.469l-0.064 0.021zM821.824 422.187c14.251 0 25.835-11.563 25.835-25.813 0-14.272-11.584-25.835-25.835-25.835s-25.835 11.563-25.835 25.835c0.021 14.251 11.584 25.813 25.835 25.813v0zM803.243 163.968l18.581 74.261 18.581-74.261h-37.163zM819.776 577.835l-303.531 50.603c-14.101 2.325-27.371-7.168-29.696-21.227-2.325-14.016 7.168-27.349 21.227-29.739l207.317-34.517-203.093-67.712-383.147 127.744 383.168 127.723 383.168-127.723-75.413-25.152z" />
<glyph unicode="&#xe914;" glyph-name="ic_delete" d="M790.251 678.251l1.259-604.203c0-31.701-13.077-48.661-44.885-48.661l-461.504 1.28c-31.765 0-45.781 14.507-45.781 46.144v605.44h-71.509v-605.717c0-63.552 51.712-115.2 115.243-115.2h460.8c63.552 0 115.243 51.669 115.243 115.2v605.717h-68.864zM335.744 548.608v-428.928c0-2.795 0.405-5.461 1.131-8.043 21.099 0 42.219 0.043 63.317 0.192 0.683 2.475 1.088 5.141 1.088 7.851v428.736c-21.845 0.107-43.691 0.171-65.536 0.192v0zM625.003 547.072v-427.413c0-2.219 0.256-4.373 0.704-6.507 21.355 0.128 42.709 0.171 64.043 0.213 0.448 2.048 0.661 4.096 0.661 6.336v427.179c-21.781 0.043-43.627 0.107-65.408 0.192v0zM978.923 794.347h-255.915v72.192c1.109 58.112-46.741 72.128-94.528 72.128h-229.952c-59.349 0-93.205-22.315-93.205-70.123l-0.256-74.197h-259.968v-70.507h933.781v70.507h0.043zM657.493 794.347h-288.043v50.496c0 16 11.285 29.931 27.307 29.931l230.443-1.259c16 0 30.080-11.499 30.080-27.499l0.213-51.669zM482.688 547.029v-427.371c0-2.219 0.256-4.416 0.704-6.507 21.163 0.085 42.304 0.171 63.467 0.171 0.448 2.069 0.683 4.096 0.683 6.336v427.179c-21.632 0.043-43.243 0.085-64.853 0.192v0z" />
<glyph unicode="&#xe915;" glyph-name="ic_description" d="M411.072 390.251c80.597 31.339 137.92 109.568 137.92 201.152 0 119.061-96.768 215.893-215.851 215.893-119.061 0-215.893-96.832-215.893-215.893 0-91.584 57.344-169.813 137.984-201.152-134.293-34.752-233.899-156.587-233.899-301.547h43.029c0 148.203 120.555 268.8 268.779 268.8s268.8-120.533 268.8-268.8h43.029c-0.064 144.96-99.669 266.795-233.899 301.547v0zM160.235 591.381c0 95.36 77.568 172.907 172.885 172.907s172.907-77.568 172.907-172.907c0-95.317-77.589-172.885-172.907-172.885s-172.885 77.568-172.885 172.885v0zM946.133 82.795h-193.344v39.125h193.344c9.621 0 17.408 7.829 17.408 17.408v617.344c0 9.6-7.787 17.408-17.408 17.408h-454.187v39.125h454.187c31.211 0 56.533-25.344 56.533-56.533v-617.344c0-31.168-25.323-56.533-56.533-56.533v0zM584 683.883h305.493v-44.544h-305.493v44.544zM584 544.747h305.493v-44.565h-305.493v44.565zM664.384 396.395h225.131v-44.565h-225.131v44.565z" />
<glyph unicode="&#xe916;" glyph-name="ic_edit" d="M989.44 847.744l-77.696 77.696c-17.92 17.643-46.549 17.643-64.171 0l-81.28-81.28 141.781-141.845 81.323 81.024c17.685 18.155 17.685 46.763 0.043 64.405v0 0zM742.293 819.883l-439.595-453.632-36.011-163.563 163.563 36.011 451.328 442.155-139.285 139.029zM839.168 448.021v-383.339c0-13.035-9.963-25.813-23.552-25.813-13.547 0-687.531 0.256-687.531 0.256-14.315 0-25.045 13.781-25.045 25.557v684.928c0 12.779 12.011 25.557 27.093 25.557h381.867l81.792 81.771h-512.661c-33.216 0-59.797-26.325-59.797-59.541v-780.224c0-32.981 26.837-59.84 59.797-59.84h780.267c32.981 0 59.541 26.859 59.541 59.84v512.64l-81.771-81.792z" />
<glyph unicode="&#xe917;" glyph-name="ic_editinfo" d="M854.464 681.472l-158.357 158.379 79.211 79.168c26.24 26.219 68.779 26.219 94.976 0l63.339-63.317c26.24-26.24 26.24-68.821 0-95.061l-79.168-79.168zM394.432 221.504l-158.336 158.336 430.464 427.093 158.357-158.336-430.485-427.093zM108.885 91.648l96.341 257.301 157.013-157.035-253.355-100.267zM820.011 37.525c22.165 0 40.128-17.941 40.128-40.107 0-22.144-17.963-40.085-40.128-40.085h-709.269c-22.123 0-40.064 17.941-40.064 40.085 0 22.165 17.941 40.107 40.064 40.107h709.269z" />
<glyph unicode="&#xe918;" glyph-name="ic_education" d="M702.784 80.981c-55.851 0-148.992-16.469-163.541-54.485v-0.832c-32.448-0.853-40.043 0-54.507 0-14.528 38.037-107.691 54.528-163.563 54.528h-299.84v790.507h326.016c70.357 0 131.179-36.139 164.608-89.493 33.408 53.355 94.293 89.493 164.693 89.493h326.016v-789.739l-299.883 0.021zM484.736 707.136c0 63.744-68.843 109.035-136.299 109.035h-272.597v-681.451h245.333c54.080 0.917 139.371-0.533 163.541-40.427v30.549c-1.024 37.781-0.043 89.301 0 91.349v473.408l0.021 17.536zM948.117 816.235h-272.555c-67.477 0-136.32-45.291-136.32-108.928v-490.453c0.043-2.112 1.045-53.611 0-91.221v-30.549c24.192 39.787 109.483 41.344 163.541 40.384h245.333v680.768z" />
<glyph unicode="&#xe919;" glyph-name="ic_evaluation" d="M512 938.667c-270.976 0-490.667-219.669-490.667-490.667 0-270.976 219.691-490.667 490.667-490.667s490.667 219.691 490.667 490.667c0 270.997-219.691 490.667-490.667 490.667v0zM512 19.392c-236.715 0-428.608 191.893-428.608 428.608s191.893 428.608 428.608 428.608c236.715 0 428.629-191.893 428.629-428.608s-191.915-428.608-428.629-428.608v0zM698.645 572.565l33.899-77.504-194.453-88.896-79.701 164.373-57.408-27.84 0.405-0.789-257.835-120.704 26.197-55.957 258.56 121.088 79.317-163.541 55.936 27.072 193.749 88.512 32.875-75.115 88.832 163.264-180.373 46.037z" />
<glyph unicode="&#xe91a;" glyph-name="ic_exam" d="M512 938.667c-271.019 0-490.667-219.669-490.667-490.667 0-271.019 219.648-490.667 490.667-490.667s490.667 219.648 490.667 490.667c0 270.997-219.648 490.667-490.667 490.667v0zM321.728 178.752h-130.048v44.821l130.048 100.011v-144.832zM485.461 178.752h-130.048v168.939l67.2 51.691 62.827-61.867 0.021-158.763zM649.173 178.752h-130.048v109.44l130.048 128.043v-237.483zM812.885 178.752h-130.048v271.147l74.091 73.024 55.957-51.328v-292.843zM788.224 573.888l-32.363 31.872-229.995-226.304-100.651 99.115-233.877-177.941v76.224l239.104 185.536 95.552-94.016 184.789 181.76-35.669 35.2 153.472 39.723-40.363-151.168z" />
<glyph unicode="&#xe91b;" glyph-name="ic_expectation" d="M964.843 759.531h-324.501v120.277c0 12.885-10.197 22.251-22.72 22.251h-211.413c-12.672 0-22.592-9.365-22.592-22.251v-120.32h-324.757c-20.885 0.021-37.525-17.152-37.525-37.76v-689.792c0-20.587 16.619-37.995 37.525-37.995h905.941c21.248 0 37.845 17.408 37.845 37.995v689.813c0.021 20.608-16.555 37.781-37.803 37.781v0 0 0zM429.205 857.045v0h166.037v-97.536h-166.037v97.536zM285.547 714.219v0h452.885v-72.619h-452.885v72.619zM927.317 69.568v0h-830.699v614.379h143.872v-65.109c0-12.587 9.963-22.784 22.549-22.784h497.899c12.288 0 22.485 10.197 22.485 22.784v65.109h143.893v-614.379zM842.325 384.619v0h-233.707c-12.885 0-22.976-10.219-22.976-22.763 0-12.885 10.197-22.485 22.976-22.485h233.707c12.672 0 23.083 9.621 23.083 22.485 0 12.587-10.432 22.763-23.083 22.763v0 0 0zM842.325 284.651v0h-233.707c-12.885 0-22.976-9.6-22.976-22.229 0-12.587 10.197-23.040 22.976-23.040h233.707c12.672 0 23.083 10.453 23.083 23.040 0 12.629-10.432 22.229-23.083 22.229v0 0 0zM585.643 461.803v0c0-12.885 10.197-22.763 22.976-22.763h233.707c12.672 0 23.083 9.877 23.083 22.763 0 12.587-10.411 22.229-23.083 22.229h-233.707c-12.779 0-22.976-9.643-22.976-22.229v0 0 0zM470.933 275.285v0c-11.221 11.029-24.619 20.331-39.36 26.219l-5.077 2.176 3.221 3.499c25.685 25.707 41.792 60.821 41.792 99.733 0 39.083-16.107 74.731-41.792 100.437-25.771 25.728-61.12 41.536-100.523 41.536-38.784 0-74.176-15.808-99.989-41.536-25.728-25.749-41.472-61.397-41.472-100.48 0-38.891 15.744-74.005 41.472-99.712l3.541-3.499c-16.875-6.123-32.213-15.787-44.757-28.373-10.731-11.008-20.117-24.448-26.283-39.424-5.845-14.507-9.088-29.781-9.088-46.677v-32.704c0-12.885 10.219-22.677 22.464-22.677h308.715c12.608 0 22.485 9.92 22.485 22.677v32.747c0 16.896-3.157 32.171-9.045 46.656-5.867 15.040-15.232 28.416-26.304 39.403v0 0 0zM261.461 475.733v0c17.173 17.387 41.472 27.605 67.776 27.605 27.115 0 50.901-10.219 68.309-27.605 17.685-17.685 28.416-42.069 28.416-68.864 0-26.048-10.731-50.389-28.416-67.52-37.205-37.803-98.581-37.803-136.085 0-17.685 17.152-28.459 41.515-28.459 67.52 0 26.795 10.795 51.179 28.459 68.864v0 0 0zM461.312 179.349v0h-263.083v9.92c0 10.709 1.835 20.928 5.291 29.184 3.776 9.408 9.429 17.984 16.597 24.96 13.952 13.632 32.747 21.909 53.653 21.909h111.467c10.688 0 20.309-1.835 28.928-5.867 9.131-3.456 17.664-8.832 24.597-16.043 6.955-6.997 12.608-15.552 16.619-24.96 3.733-8.256 5.867-18.475 5.867-29.184v-9.92h0.064z" />
<glyph unicode="&#xe91c;" glyph-name="ic_experience" d="M896.576 739.755h-159.168v53.013c0 58.603-47.552 106.112-106.133 106.112h-265.173c-58.581 0-106.091-47.509-106.091-106.112v-53.013h-132.587c-58.581 0-106.091-47.531-106.091-106.133v-530.411c0-58.581 47.509-106.091 106.091-106.091h769.152c58.581 0 106.112 47.509 106.112 106.091v530.411c-0.021 58.603-47.531 106.133-106.112 106.133v0zM339.605 766.272c0 29.269 23.765 53.035 53.035 53.035h212.203c29.248 0 53.013-23.765 53.013-53.035v-26.496h-318.251v26.496zM923.115 129.707c0-29.248-23.765-53.035-53.035-53.035h-716.139c-29.269 0-53.035 23.787-53.035 53.035v238.741h344.789v-23.616c0-30.912 29.696-55.957 66.304-55.957s66.283 25.045 66.283 55.957v23.616h344.811v-238.741h0.021zM923.115 421.504h-344.832v23.616c0 30.891-29.739 55.936-66.283 55.936s-66.304-25.045-66.304-55.936v-23.616h-344.811v185.621c0 29.291 23.765 53.035 53.035 53.035h716.096c29.269 0 53.013-23.744 53.013-53.035v-185.621h0.085z" />
<glyph unicode="&#xe91d;" glyph-name="ic_export" d="M520.448 876.672h-437.845v-858.411h859.179v438.805l60.821-59.669v-341.803c0 0 3.349-98.176-88.32-98.176h-793.195c0 0-99.755-8.192-99.755 94.805v788.373c0 0 0 98.155 93.227 98.155h345.045l60.843-62.080zM623.189 938.731h379.413l0.064-376.128-142.784 140.693-248.683-245.376-91.477 88.64 243.691 250.283z" />
<glyph unicode="&#xe91e;" glyph-name="ic_female" d="M512 938.667c265.92 0 481.493-219.691 481.493-490.667s-215.573-490.667-481.493-490.667c-265.941 0-481.493 219.691-481.493 490.667s215.552 490.667 481.493 490.667v0 0zM597.632 728.448c35.008 4.715 76.416-10.304 105.408-28.117 28.075-16.896 48.341-39.424 63.979-71.296 11.072-22.059 17.941-45.035 20.715-70.379 5.056-50.197-23.936-107.392-46.933-133.205-15.211-16.875-30.4-28.117-51.115-38.912-19.819-10.304-43.264-18.283-69.035-20.672-40.469-4.181-86.549 13.632-118.741 37.547-13.355 9.365-23.488 19.712-33.6 33.792-20.245 28.608-33.6 60.48-37.291 98.475-5.035 46.912 18.88 99.925 46.037 133.205 11.968 14.059 31.296 28.139 51.093 38.933 20.693 10.795 42.816 17.365 69.483 20.629v0 0zM224.811 396.395c0-6.613-0.448-17.344 0.448-23.488 0.469-7.957 4.629-10.795 7.851-14.592l44.651-45.909c4.117-4.203 7.339-7.957 11.499-11.712 4.139-4.245 9.664-8.448 11.499-11.797-1.835-3.243-15.189-16.448-19.328-20.117l-49.707-50.624c-1.835-1.877-2.773-2.901-4.139-5.163-2.304-2.837-1.835-4.715-3.2-7.040v-26.261c6.421-10.795-0.917-2.816 12.416-16.448 6.443-6.549 9.216-7.957 21.653-7.957 23.915 0 19.328-0.448 38.656 19.243 9.216 8.875 16.576 16.875 28.992 28.992 5.056 5.163 9.216 9.344 14.272 14.635 4.608 5.077 10.133 10.24 14.272 14.997l39.125-39.872c4.139-4.245 30.379-31.915 34.517-34.709 2.752-2.325 4.608-2.325 6.891-3.797h26.219l5.077 2.325c1.813 0.939 3.2 2.283 4.139 2.816 11.968 10.795 15.189 14.613 15.189 29.547 0 25.344 0 19.776-19.328 39.872-14.741 15.531-38.208 40.789-53.397 55.403-0.917 0.917-0.917 0.917-1.856 1.877-1.835 1.365-0.917 0-1.835 2.283 2.304 3.243 8.299 8.917 11.499 12.181 4.139 4.181 7.829 8 11.989 12.693l24.384 23.893c8.299-5.141 15.659-11.179 25.344-16.875 29.909-16.875 61.696-27.669 97.557-30.955 65.344-5.632 118.315 5.696 171.712 41.323 20.715 14.080 49.685 43.115 64.875 64.277 46.507 64.747 43.243 121.024 46.037 128.064v43.136c-0.917 3.264-1.835 21.589-2.795 27.2-8.341 54.869-34.091 98.965-69.931 136.021-36.821 37.995-79.168 63.317-133.483 72.235-4.629 0.939-23.019 2.347-25.792 3.285h-44.629c-4.139-1.877-14.72-1.877-19.861-2.347-37.291-5.632-76.885-21.589-105.387-44.075-6.464-4.693-18.411-14.080-23.509-20.16-3.2-3.776-6.891-7.040-10.581-10.795-19.307-19.712-32.213-36.587-45.099-61.909-31.744-61.44-35.435-148.693-9.195-217.173 11.051-29.547 29.461-52.949 30.357-55.339l-47.851-48.768c-3.2 1.856-11.051 11.712-14.72 14.528-5.973 5.141-36.843 37.547-43.264 44.587-18.88 19.2-14.272 18.261-40.021 18.261-12.885 0-14.293-2.816-20.736-8.917-5.035-5.141-8.725-7.488-11.477-16.875v0 0z" />
<glyph unicode="&#xe91f;" glyph-name="ic_forbidden_line" d="M511.957 938.667c-270.955 0-490.624-219.691-490.624-490.688 0-270.955 219.669-490.645 490.624-490.645s490.709 219.691 490.709 490.645c0 270.997-219.755 490.688-490.709 490.688v0zM512.107 2.965c-245.739 0-444.928 199.168-444.928 444.885 0 245.76 199.211 444.928 444.928 444.928 245.739 0 444.928-199.189 444.928-444.928 0-245.717-199.211-444.885-444.928-444.885v0zM754.133 492.885c24.789 0 44.885-20.096 44.885-44.885v0c0-24.789-20.096-44.885-44.885-44.885h-484.267c-24.789 0-44.885 20.032-44.885 44.885v0c0 24.789 20.075 44.885 44.885 44.885h484.267z" />
<glyph unicode="&#xe920;" glyph-name="ic_forbidden" d="M512 938.667c-270.997 0-490.667-219.669-490.667-490.667s219.669-490.667 490.667-490.667 490.667 219.669 490.667 490.667-219.669 490.667-490.667 490.667v0zM746.667 401.067c0-9.387-7.616-17.067-17.067-17.067h-435.2c-9.408 0-17.067 7.616-17.067 17.067v93.867c0 9.408 7.637 17.067 17.067 17.067h435.2c9.387 0 17.067-7.637 17.067-17.067v-93.867z" />
<glyph unicode="&#xe921;" glyph-name="ic_genre" d="M21.333 877.12v-858.24h980.885l0.448 858.24h-981.333zM879.573 141.504h-735.637v490.411h735.637v-490.411z" />
<glyph unicode="&#xe922;" glyph-name="ic_help" d="M985.344 638.699c-25.792 59.669-60.885 111.68-105.344 156.011-44.437 44.459-96.341 79.531-155.733 105.323-59.435 25.749-123.093 38.635-190.933 38.635s-131.435-12.885-190.912-38.656c-59.349-25.792-111.232-60.864-155.733-105.323-44.352-44.309-79.488-96.341-105.301-156.011-25.856-59.605-38.72-123.371-38.72-191.147 0-67.733 12.864-131.221 38.72-190.613 25.813-59.413 60.928-111.296 105.301-155.627 44.501-44.373 96.384-79.509 155.733-105.259 59.477-25.856 123.072-38.699 190.912-38.699s131.499 12.843 190.912 38.699c59.413 25.749 111.296 60.885 155.733 105.259 44.416 44.331 79.552 96.213 105.344 155.627 25.792 59.371 38.677 122.88 38.677 190.613 0 67.797-12.885 131.541-38.656 191.168v0 0zM534.741 66.581c-36.117 0-65.344 29.12-65.344 65.216 0 36.032 29.163 65.216 65.344 65.216 36.011 0 65.323-29.099 65.323-65.216 0-36.096-29.291-65.216-65.323-65.216v0 0zM731.648 509.397c-13.888-25.003-41.088-55.403-81.515-91.136-27.115-24.043-44.928-41.792-53.248-53.205-8.384-11.349-14.549-24.448-18.539-39.339-4.011-14.72-6.379-38.912-6.869-72.171h-80.171c-0.341 11.051-0.469 19.328-0.469 24.96 0 32.661 4.672 60.992 13.888 84.672 6.784 17.877 17.728 35.989 32.853 54.123 11.157 13.248 31.147 32.661 60.011 58.219 28.928 25.344 47.68 45.589 56.341 60.757 8.619 15.125 12.992 31.616 12.992 49.451 0 32.405-12.757 60.949-37.995 85.419-25.344 24.469-56.448 36.843-93.035 36.843-35.52 0-65.173-11.221-88.917-33.344-43.456-37.461-47.851-104.021-47.851-104.021-2.944-20.629-20.672-36.523-42.176-36.523-23.552 0-42.581 19.115-42.581 42.581 0 1.344 0.085 2.709 0.149 4.032v0 0.107c0.064 0.853 0.213 1.749 0.363 2.624 8 61.803 30.848 109.44 68.373 142.571 38.123 33.536 88.491 50.347 151.211 50.347 66.389 0 119.36-18.048 158.805-54.123 39.552-36.096 59.243-79.765 59.243-130.923-0.064-29.653-6.976-56.917-20.864-81.92v0 0z" />
<glyph unicode="&#xe923;" glyph-name="ic_history" d="M512 937.216c-164.459 0-309.739-80.832-398.677-204.693v82.389c0 25.323-20.608 45.824-45.995 45.824-25.408 0.043-45.995-20.501-45.995-45.824v-183.488c0-25.344 20.587-45.845 45.995-45.845h199.339c25.387 0 45.995 20.544 45.995 45.845 0 25.344-20.608 45.845-45.995 45.845h-80.021c72.171 101.76 190.891 168.213 325.355 168.213 220.16 0 398.677-177.963 398.677-397.483 0-219.499-178.496-397.461-398.677-397.461-185.557 0-341.077 126.592-385.515 297.749l-0.789-0.256c-6.187 18.048-22.848 31.168-43.029 31.168-25.408 0-45.995-20.544-45.995-45.824 0-4.544 1.344-8.619 2.56-12.757l-0.469-0.171c0.32-1.088 0.853-2.155 1.173-3.2 0.341-0.875 0.555-1.749 0.96-2.624 58.347-205.12 246.656-355.84 471.104-355.84 270.997 0 490.667 219.051 490.667 489.216 0 270.187-219.691 489.216-490.667 489.216v0zM512 730.837c-25.387 0-45.995-20.544-45.995-45.867v-275.157c0-25.344 20.608-45.845 45.995-45.845v0h199.339c25.387 0 45.995 20.544 45.995 45.845s-20.608 45.824-45.995 45.824h-153.344v229.291c0 25.365-20.587 45.909-45.995 45.909v0z" />
<glyph unicode="&#xe924;" glyph-name="ic_idea" d="M512 938.667c-270.997 0-490.667-219.669-490.667-490.667s219.669-490.667 490.667-490.667c270.976 0 490.667 219.669 490.667 490.688 0 270.976-219.669 490.645-490.667 490.645v0zM490.496 822.912h37.12v-117.76h-37.12v117.76zM258.197 429.824h-117.739v37.163h117.739v-37.163zM234.069 698.88l26.24 26.24 83.243-83.221-26.24-26.24-83.243 83.221zM516.075 73.088c-45.248 0.832-79.872 38.165-93.952 94.080h187.925c-14.123-55.915-48.747-93.248-93.973-94.080v0zM676.309 399.083l-4.523-11.051-2.517-4.907c-0.619-1.259-1.237-2.411-1.856-3.669l-0.64-1.216c0 0-41.707-82.667-49.344-158.912h-202.667c-6.72 67.008-45.76 154.176-54.4 171.328v0c-11.072 23.552-17.259 47.403-17.259 75.264 0 98.645 77.44 178.667 172.971 178.667 95.552 0 172.949-80 172.949-178.667 0.021-25.429-0.981-41.92-12.715-66.837v0zM676.309 646.037l83.179 83.221 26.219-26.219-83.157-83.264-26.24 26.261zM765.781 435.712v37.12h117.781v-37.12h-117.781z" />
<glyph unicode="&#xe925;" glyph-name="ic_import" d="M344.363 556.928h-160.811l243.285-243.264 243.307 243.264h-157.376c8.832 338.965-299.179 376.725-491.435 198.869 130.517 72.085 329.664 84.181 323.029-198.869v0zM937.749 893.76h-524.907c26.965-13.909 51.243-31.915 72.512-53.76 27.861-28.587 49.536-55.445 68.139-120.448h395.051v-701.099h-827.093v683.947c0 0-16.768 20.117-52.971 2.496v-680.448c0-35.904 29.077-64.875 64.917-64.875h804.373c35.861 0 64.896 28.971 64.896 64.875v804.395c0 35.84-29.035 64.917-64.917 64.917v0z" />
<glyph unicode="&#xe926;" glyph-name="ic_info" d="M918.293 833.259h-812.587c-46.592 0-84.373-36.437-84.373-81.451v-607.637c0-44.992 37.781-81.408 84.373-81.408h812.587c46.635 0 84.373 36.416 84.373 81.408v607.637c0 45.013-37.781 81.451-84.373 81.451zM129.856 273.621c0 103.168 54.912 175.189 131.733 205.653-32.533 22.208-53.888 62.656-53.888 105.003 0 68.139 55.253 123.051 123.477 123.051s123.541-56.128 123.541-124.288c0-42.368-21.376-81.323-53.888-103.552 76.885-30.421 131.755-102.677 131.755-205.824-0.021-106.581-402.731-106.581-402.731-0.043zM860.224 237.717h-243.371v68.416h243.371v-68.416zM860.224 412.715h-243.371v70.677h243.371v-70.677zM860.224 587.648h-243.371v70.635h243.371v-70.635z" />
<glyph unicode="&#xe927;" glyph-name="ic_information" d="M512 938.667c-271.019 0-490.667-191.317-490.667-427.349 0-116.309 53.397-221.845 139.947-298.859 52.117-46.421 350.72-255.125 350.72-255.125v126.635c270.997 0 490.667 191.339 490.667 427.371 0 236.011-219.669 427.328-490.667 427.328v0zM269.461 445.611c-36.139 0-65.408 28.352-65.408 63.317 0 34.901 29.269 63.253 65.408 63.253s65.429-28.352 65.429-63.253c0.021-34.987-29.291-63.317-65.429-63.317v0zM513.92 445.611c-36.139 0-65.451 28.352-65.451 63.317 0 34.901 29.312 63.253 65.451 63.253 36.117 0 65.429-28.352 65.429-63.253 0-34.987-29.312-63.317-65.429-63.317v0zM760.299 445.611c-36.16 0-65.451 28.352-65.451 63.317 0 34.901 29.291 63.253 65.451 63.253 36.032 0 65.344-28.352 65.344-63.253 0-34.987-29.312-63.317-65.344-63.317v0z" />
<glyph unicode="&#xe928;" glyph-name="ic_like" d="M22.357 665.749h198.464v-708.395h-198.464v708.395zM298.901 659.221l202.944 241.941c27.563 32.896 81.664 44.587 105.408 33.365 0 0 5.141-2.432 0 0-4.843 2.261 0 0 0 0 31.211-14.741 52.992-61.397 48.683-104.171l-18.987-187.861h280.491c50.923 0 94.379-45.013 82.091-83.477-12.288-38.507-137.621-541.419-159.552-572.395-21.888-30.955-65.728-29.269-90.261-29.269h-450.816v701.867z" />
<glyph unicode="&#xe929;" glyph-name="ic_location_line" d="M511.979-42.667c-7.125 0-13.867 3.328-18.176 9.003l-279.168 366.699c-0.64 0.832-1.28 1.707-1.941 2.539-1.088 1.344-2.197 2.88-3.328 4.416l-1.28 1.515c-0.832 1.067-1.6 2.197-2.24 3.328-45.568 63.893-69.675 139.221-69.675 217.941 0 100.373 39.061 194.773 110.037 265.728 71.019 71.061 165.376 110.165 265.728 110.165 100.373 0 194.816-39.104 265.813-110.101s110.059-165.397 110.059-265.771c0-78.72-24.107-154.005-69.739-217.92-0.576-1.003-1.259-2.091-2.048-3.008l-1.451-1.877c-1.621-2.219-3.456-4.629-5.376-7.040l-279.061-366.656c-4.309-5.632-11.051-8.96-18.155-8.96v0 0zM276.288 379.2l235.648-309.653 235.947 309.781c0 0.107 0.085 0.256 0.171 0.363 1.493 1.835 2.944 3.691 4.544 5.803 0.043 0.128 0.192 0.277 0.32 0.405 0.277 0.448 0.469 0.853 0.853 1.323 37.035 51.115 56.576 111.552 56.576 174.699 0 79.68-31.040 154.581-87.381 210.923-56.405 56.341-131.243 87.403-210.987 87.403-79.723 0-154.56-31.061-210.923-87.403-56.32-56.363-87.339-131.243-87.339-210.923 0-63.189 19.563-123.627 56.576-174.699 0.235-0.363 0.448-0.597 0.64-1.003 0.235-0.277 0.448-0.512 0.704-0.875 0.789-1.109 1.707-2.24 2.688-3.627 0.64-0.832 1.344-1.685 1.963-2.517v0 0zM511.979 416.917c-81.045 0-146.944 65.899-146.944 146.944s65.899 146.944 146.944 146.944 146.987-65.899 146.987-146.944c0-81.045-65.941-146.944-146.987-146.944v0 0zM511.979 639.403c-41.067 0-74.432-33.365-74.432-74.453 0-41.067 33.365-74.411 74.432-74.411s74.389 33.365 74.389 74.411c0 41.045-33.323 74.453-74.389 74.453v0 0z" />
<glyph unicode="&#xe92a;" glyph-name="ic_location" d="M512 938.667c-203.627 0-368.725-164.8-368.725-368.021s368.725-613.312 368.725-613.312 368.725 410.091 368.725 613.312c0 203.221-165.099 368.021-368.725 368.021v0zM733.248 570.645c0-121.92-99.093-220.821-221.248-220.821-122.176 0-221.248 98.88-221.248 220.821 0 121.963 99.051 220.821 221.248 220.821 122.219 0 221.248-98.859 221.248-220.821v0z" />
<glyph unicode="&#xe92b;" glyph-name="ic_mail" d="M322.325 447.296l-187.008 208.043c-15.381 17.344-15.381 45.205 0 62.059 15.403 17.323 40.469 17.323 56.32 0l298.347-330.304c11.883-12.885 32.149-12.885 43.605 0l299.243 330.304c15.381 17.323 40.448 17.323 56.299 0 15.424-16.853 15.424-44.757 0-62.059l-187.456-208.043 187.499-206.592c15.381-17.344 15.381-45.291 0-62.592-15.829-16.917-40.917-16.917-56.341 0l-187.051 206.507-69.077-77.504c-16.704-17.792-39.616-28.885-64.725-28.885-25.045 0-47.957 11.563-64.683 29.781l-69.056 76.587-186.603-206.507c-15.851-16.917-40.896-16.917-56.32 0-15.403 17.344-15.403 45.205 0 62.656l187.008 206.549zM21.333 129.579c0-50.091 36.544-90.539 81.877-90.539h818.091c44.885 0 81.365 40.448 81.365 90.539v636.821c0 50.091-36.523 90.56-81.365 90.56h-818.091c-45.333 0-81.877-40.491-81.877-90.56v-636.821z" />
<glyph unicode="&#xe92c;" glyph-name="ic_male" d="M512 938.667c265.92 0 481.493-219.691 481.493-490.667s-215.573-490.667-481.493-490.667-481.493 219.691-481.493 490.667 215.573 490.667 481.493 490.667v0 0zM407.296 529.557c22.997 2.347 55.68-7.040 73.643-14.997 10.581-4.715 20.715-9.856 29.44-15.488 15.659-10.325 24.427-17.365 36.373-31.445 25.344-29.547 42.325-72.235 45.589-113.024 1.835-24.405-6.464-55.36-14.677-75.072-17.109-42.667-44.693-73.237-86.549-94.293-20.224-9.835-44.16-17.344-69.952-19.2-38.187-3.264-87.445 15.915-117.824 39.872-39.552 31.424-63.957 82.091-68.565 135.552-2.773 33.344 12.885 77.397 30.379 105.067 2.773 4.693 5.973 8.917 9.216 13.12 2.752 4.224 6.891 9.387 10.133 12.672 16.107 16.405 30.379 27.2 52.011 37.995 21.995 10.816 43.605 16.896 70.784 19.243v0 0zM610.731 606.955c-1.835-3.285-8.747-9.856-11.989-12.672-4.587-4.693-32.661-34.219-35.456-35.648-3.669 1.877-8.704 6.101-12.885 8.917-28.544 18.752-58.923 30.485-92.971 35.648l-18.88 2.795c-3.221-0.939-26.219 0-31.765 0-10.112 0-20.224-0.448-30.379-1.877-18.411-2.347-35.435-6.571-51.541-12.203-33.131-12.203-58.453-30.016-79.168-49.259-51.093-47.381-78.699-95.68-85.141-172.117-1.835-43.605 0-76.907 14.251-115.392 9.237-26.219 28.565-60.011 48.341-80.213 25.344-24.832 35.435-37.952 70.891-57.237 14.272-7.957 28.544-13.653 45.099-18.752 8.725-2.88 17.472-4.757 26.219-6.123 5.995-0.917 24.853-2.304 28.075-3.221h42.816c3.691 1.344 14.72 1.877 19.776 2.304 5.995 0.917 11.989 1.877 17.984 3.243 11.051 2.283 22.997 6.080 33.131 10.24 24.875 9.877 59.84 30.549 78.229 50.667 3.669 3.797 7.403 7.552 11.072 11.243 10.581 10.795 20.736 22.016 29.461 35.157 33.6 52.032 46.016 105.493 40.469 174.912-2.261 26.24-8.299 48.789-17.045 70.379-3.669 10.304-8.747 20.16-13.781 29.077-2.773 4.693-5.525 9.365-8.747 13.589-2.24 3.755-6.827 9.856-8.299 13.141 7.787 8.917 17.451 17.365 26.219 26.261l52.501 53.461c4.629 4.693 8.704 8.448 13.333 13.141 2.752 3.285 9.664 11.264 12.885 12.672 0-11.733-0.939-92.885 0.917-98.027 1.344-4.224 8.725-10.795 11.115-13.589 6.464-6.101 9.216-4.715 19.797-4.715 25.749 0 23.488-2.325 37.291 11.733 5.952 6.101 4.608 8.896 4.608 19.691l0.917 167.915v28.587c-5.077 8.917-2.773 5.653-11.52 14.549-6.464 6.549-9.643 5.163-20.245 5.163h-126.592c-4.587 0-21.163-0.469-23.915 0.469h-40.491c-4.117-2.325-4.608-1.877-8.299-5.163-12.416-12.672-12.416-11.264-12.416-27.2 0-21.568-3.2-24.384 13.781-39.403 6.464-5.632 12.416-4.224 22.037-4.224h26.219c17.045 0 34.496 0 51.584-0.448-1.387-2.816-23.936-24.875-28.587-29.077l-21.675-22.037c-1.344-1.408-2.283-2.347-3.669-3.755-0.917-0.469-1.365-1.408-1.856-1.877-1.28-0.725-0.363-0.256-1.707-0.725v0 0z" />
<glyph unicode="&#xe92d;" glyph-name="ic_member" d="M512 938.667c-271.019 0-490.667-219.712-490.667-490.688s219.648-490.645 490.667-490.645c270.976 0 490.667 219.691 490.667 490.645 0 270.976-219.712 490.688-490.667 490.688v0 0zM209.301 214.336c0 0-1.088 65.131 13.163 78.933s20.011 38.656 95.552 50.027c75.499 11.307 67.605 51.669 70.037 50.368-0.448 15.296-1.899 36.843-1.899 36.843s-39.36 16.917-50.944 50.389c-24.299 9.92-21.077 16.32-23.445 29.056 0 0-7.36 52.011 9.045 50.901 0 0 10.667 0 8.043 11.989-0.853 19.883-0.832 58.368 0.448 71.595 1.301 13.269 10.965 49.067 38.379 54.357 27.435 5.312 16.427 2.624 25.557 4.011 9.131 1.344 6.528 6.635 23.509 6.635l35.221 7.339c16.96 0 27.84-28.117 36.949-29.483 9.152-1.323 11.328 4.053 30.016 0.512 27.392-5.312 23.595-43.157 24.896-56.448 1.344-13.248 3.733-49.259 1.131-61.163-2.624-11.925 5.504-10.581 5.504-10.581 19.627 0 13.461-50.923 13.461-50.923-3.008-13.461-11.136-15.040-29.419-26.773-11.584-33.472-48.597-58.155-48.597-58.155s-0.171-27.776-0.32-33.813c0.533-2.347-4.203-36.928 60.181-46.677 75.52-11.285 88.555-36.16 102.763-50.005 14.251-13.781 15.787-78.955 15.787-78.955l-455.019 0.021zM684.907 214.869c0 0 0.448 41.621-15.168 86.379-14.165 26.539-31.040 32.619-53.504 46.037-0.448 11.712 2.219 29.44 2.219 29.44s-25.216 12.928-34.091 38.656c-18.624 7.573-16.192 12.459-17.984 22.293 0 0-3.136 39.829 9.408 38.997 0 0 11.627 0 9.6 9.173-0.64 15.168-0.448 44.757 0.576 54.869 1.003 10.133 3.797 37.547 24.725 41.643 20.971 4.053 8.896 2.027 15.872 3.029 6.976 1.088 4.928 5.12 18.005 5.12l27.029 5.952c12.971 0 21.333-20.011 28.331-20.992 6.997-1.024 0.341 3.115 14.677 0.405 20.992-4.053 17.152-33.109 18.176-43.243 1.045-10.155 1.963-35.264 0.576-48.768-2.027-9.195 4.224-8.149 4.224-8.149 14.976 0 13.973-39.040 13.973-39.040-2.261-10.24-3.029-11.541-16.96-20.48-8.875-25.685-40.32-41.429-40.32-41.429s-0.725-19.541-0.896-24.213c0.448-1.835 6.677-33.792 53.355-40.576 57.941-8.64 67.904-27.712 78.763-38.293 10.901-10.624 13.291-56.683 13.291-56.683l-153.856-0.128z" />
<glyph unicode="&#xe92e;" glyph-name="ic_message" d="M665.344 420.245h-306.667c-16.917 0-30.677-12.437-30.677-27.755 0-15.339 13.739-27.755 30.677-27.755h306.667c16.917 0 30.677 12.416 30.677 27.755-0.021 15.317-13.781 27.755-30.677 27.755v0zM297.344 531.243h429.333c16.917 0 30.677 12.437 30.677 27.755 0 15.339-13.781 27.755-30.677 27.755h-429.333c-16.939 0-30.677-12.416-30.677-27.755 0-15.317 13.739-27.755 30.677-27.755v0zM512 836.544c236.992 0 429.333-149.205 429.333-333.013 0-112.832-72.619-212.48-183.275-272.619l1.984-128.789-144.299 78.635c-33.344-6.507-67.904-10.283-103.744-10.283-237.248 0-429.333 149.184-429.333 333.035 0 183.829 192.085 333.035 429.333 333.035v0zM512 114.965c31.424 0 62.059 2.667 91.755 7.125l214.912-118.123v196.501c112.128 71.232 184 180.48 184 303.061 0 214.677-219.584 388.501-490.667 388.501-271.104 0-490.667-173.824-490.667-388.544 0-214.443 219.563-388.523 490.667-388.523v0z" />
<glyph unicode="&#xe92f;" glyph-name="ic_mobile" d="M835.115 10.496c0-28.629-24.512-53.163-53.163-53.163h-539.925c-28.629 0-53.141 24.533-53.141 53.163v875.008c0 28.629 24.512 53.163 53.141 53.163h539.968c28.629 0 53.12-24.533 53.12-53.163v-875.008zM757.44 744.981c0 28.629-16.363 53.163-44.971 53.163h-396.843c-32.704 0-57.259-24.533-57.259-53.163v-454.805c0-28.651 24.533-53.163 53.163-53.163h392.768c28.629 0 53.12 24.512 53.12 53.163l0.021 454.805zM551.552 97.835c0 20.459-16.363 36.843-36.821 36.843-20.437 0-36.8-16.384-36.8-36.843 0-20.416 16.363-36.8 36.8-36.8 20.459 0 36.821 16.384 36.821 36.8v0z" />
<glyph unicode="&#xe930;" glyph-name="ic_news" d="M512 938.667c270.976 0 490.667-219.691 490.667-490.667 0-270.997-219.691-490.667-490.667-490.667s-490.667 219.691-490.667 490.667 219.691 490.667 490.667 490.667v0 0zM548.885 238.955v422.741c0 0-13.461 38.827-46.763 9.472-33.365-29.376-113.045-102.592-113.045-102.592h-124.757c-8.448 0-22.144 0.96-22.144-29.909v-182.251c0-14.507 10.901-24.875 22.912-24.875h117.525l120.747-104.832c17.493-15.211 45.525-23.083 45.525 12.245v0 0zM781.589 434.411c3.925 75.627-30.869 145.173-89.493 194.752-19.115 12.843-47.381-13.504-35.712-29.504 49.387-41.515 78.699-99.84 75.413-163.392-3.008-57.771-32.299-109.184-77.76-146.368-15.829-18.987 21.781-40.469 34.24-30.72 54.549 44.437 89.728 106.091 93.312 175.232v0 0zM633.707 440.277c-1.856-36.203-19.669-68.651-47.424-92.672-13.803-16.896 16.469-39.552 33.216-27.307 35.392 30.677 58.091 72.085 60.459 118.272 2.667 51.648-20.544 99.2-59.925 133.632-19.371 14.485-46.805-13.056-34.709-26.005 31.723-27.051 50.517-64.832 48.384-105.92v0 0z" />
<glyph unicode="&#xe931;" glyph-name="ic_next" d="M21.333 448c0 270.592 220.096 490.667 490.667 490.667 270.592 0 490.667-220.075 490.667-490.667s-220.075-490.667-490.667-490.667c-270.571 0-490.667 220.075-490.667 490.667v0 0zM932.587 448c0 231.915-188.672 420.565-420.587 420.565s-420.587-188.651-420.587-420.565 188.672-420.587 420.587-420.587 420.587 188.672 420.587 420.587v0 0zM570.752 248.171l175.509 173.589c10.368 10.219 12.971 25.365 7.829 38.144-0.341 0.832-1.109 1.429-1.451 2.219-1.557 3.264-3.307 6.528-6.016 9.28-0.043 0-0.085 0-0.107 0.043-0.085 0.043-0.085 0.085-0.128 0.128l-173.995 174.528c-13.717 13.717-35.925 13.739-49.557 0.064-6.869-6.848-10.304-15.851-10.304-24.811 0-8.939 3.392-17.92 10.24-24.747l113.216-113.472h-334.272c-19.371 0-35.051-15.701-35.051-35.072s15.68-35.093 35.051-35.093h335.957l-116.203-114.987c-6.955-6.805-10.411-15.851-10.411-24.917 0-8.917 3.371-17.813 10.133-24.64 13.547-13.76 35.755-13.888 49.557-0.256v0 0z" />
<glyph unicode="&#xe932;" glyph-name="ic_ok" d="M512 937.856c-270.997 0-490.667-219.307-490.667-489.856s219.669-489.856 490.667-489.856 490.667 219.307 490.667 489.856c0 270.549-219.669 489.856-490.667 489.856v0zM781.781 565.397l-315.861-322.688c-14.528-14.827-38.101-14.827-52.629 0l-171.093 174.784c-14.549 14.869-14.549 38.933 0 53.781 14.549 14.869 38.101 14.869 52.651 0l144.768-147.904 289.557 295.829c14.549 14.848 38.080 14.848 52.629 0s14.528-38.933-0.021-53.803v0z" />
<glyph unicode="&#xe933;" glyph-name="ic_phone" d="M918.272 833.259h-812.544c-46.613 0-84.395-36.459-84.395-81.429v-607.659c0-44.949 37.781-81.408 84.395-81.408h812.544c46.613 0 84.395 36.459 84.395 81.408v607.659c0 44.971-37.781 81.429-84.395 81.429zM758.635 258.091c-11.008-34.539-58.944-85.781-102.677-85.781v0l-2.88 0.064c-66.475 3.392-156.267 65.685-240.192 166.677l-31.019 37.291c-83.947 100.949-127.893 199.573-117.632 263.808 7.275 45.312 74.923 83.541 113.579 83.541 19.051 0 25.941-9.429 28.352-15.061 21.867-38.72 48.96-106.069 49.088-130.219l0.021-1.728-0.619-1.6c-4.843-12.693-15.616-18.773-25.173-24.149-12.544-7.061-19.691-11.691-20.544-25.045-0.277-4.053 3.243-22.485 58.624-90.432l23.659-28.459c55.552-65.259 73.003-72.299 77.077-72.853 13.419-1.856 19.712 3.989 29.333 14.507 7.339 8 15.637 17.109 29.376 19.115l1.749 0.256 1.707-0.405c24.171-5.035 86.059-44.821 121.216-74.24 5.12-3.371 13.952-13.333 6.955-35.285z" />
<glyph unicode="&#xe934;" glyph-name="ic_portrait" d="M956.075-1.877c0-22.165-17.963-40.128-40.128-40.128s-40.128 17.963-40.128 40.128l-0.448 3.733c0 1.579 0.299 3.115 0.448 4.693-25.088 176.171-176.107 305.579-360 307.627-1.472-0.043-2.88-0.235-4.373-0.235-1.451 0-2.859 0.192-4.309 0.235-181.696-2.005-331.285-128.576-358.848-301.696 0.917-3.392 1.557-6.912 1.557-10.603l0.384-3.776c0-22.528-18.24-40.768-40.747-40.768s-40.768 18.24-40.768 40.768l-0.021 0.363h-0.768c0.128 1.216 0.363 2.325 0.469 3.499 0 3.371 0.533 6.549 1.301 9.664 20.885 162.411 129.707 293.717 277.824 350.251-86.251 55.253-142.464 152.896-142.464 264.427 0 172.501 134.037 312.363 306.539 312.363 172.48 0 306.581-139.861 306.581-312.363 0-111.509-56.213-209.088-142.4-264.363 147.115-56.107 255.445-185.877 277.483-346.645 1.493-4.203 2.475-8.704 2.475-13.44l0.341-3.733zM747.669 626.219c0 130.432-105.707 236.16-236.139 236.16s-236.16-105.749-236.16-236.16 105.749-236.117 236.16-236.117 236.139 105.685 236.139 236.117v0z" />
<glyph unicode="&#xe935;" glyph-name="ic_preview" d="M900.907 719.168c-21.333 29.013-51.051 63.040-83.584 95.552-32.512 32.533-66.539 62.293-95.552 83.563-49.429 36.245-73.387 40.384-87.125 40.384h-475.285c-42.325 0-76.715-34.325-76.715-76.672v-827.968c0-42.325 34.368-76.693 76.715-76.693h705.259c42.219 0 76.757 34.325 76.757 76.715v597.952c-0.021 13.803-4.267 37.781-40.469 87.168v0 0zM773.867 771.328c29.504-29.461 52.544-55.979 69.568-77.995h-147.541v147.541c22.016-17.067 48.555-40.149 77.973-69.547v0 0 0zM880.021 34.048c0-8.384-6.997-15.381-15.403-15.381h-705.259c-8.384 0-15.381 6.997-15.381 15.381v827.947c0 8.299 6.997 15.339 15.381 15.339h475.285v-214.677c0-16.875 13.739-30.677 30.677-30.677h214.677l0.021-597.931zM779.883 136.704l-172.928 172.949c29.013 36.373 46.443 82.475 46.443 132.693 0 117.589-95.317 212.885-212.885 212.885-117.632 0-212.907-95.296-212.907-212.885 0-117.568 95.317-212.885 212.907-212.885 46.315 0 83.755 9.344 118.677 34.496l173.995-173.995c6.549-6.549 17.088-6.549 23.573 0l23.125 23.083c6.443 6.528 6.443 17.131 0 23.659v0 0zM440.448 303.168c-76.885 0-139.221 62.336-139.221 139.221s62.336 139.221 139.221 139.221 139.221-62.336 139.221-139.221-62.315-139.221-139.221-139.221v0 0z" />
<glyph unicode="&#xe936;" glyph-name="ic_project" d="M778.965 433.728h-328.917c-26.88 0-48.576 21.675-48.576 48.555 0 26.859 21.717 48.555 48.576 48.555h328.896c26.88 0 48.512-21.717 48.512-48.555 0.043-26.88-21.824-48.555-48.491-48.555v0 0zM778.965 241.451h-328.917c-26.88 0-48.576 21.739-48.576 48.576 0 26.88 21.717 48.512 48.576 48.512h328.896c26.88 0 48.512-21.739 48.512-48.512 0.043-26.837-21.824-48.576-48.491-48.576v0 0zM1002.219 82.731v614.315c0 74.645-68.011 67.605-68.011 67.605s-405.931-0.427-384.363 0c-23.125-0.427-34.859 12.181-34.859 12.181s-16.128 27.947-45.269 71.723c-30.379 46.123-65.749 38.677-65.749 38.677h-298.944c-82.859 0-83.691-79.787-83.691-79.787v-720.789c0-88.875 67.179-77.909 67.179-77.909h851.861c71.915-0.021 61.845 73.984 61.845 73.984v0 0 0 0zM941.184 119.104c0-27.499-22.123-49.6-49.621-49.6h-759.637c-27.499 0-49.6 22.101-49.6 49.6v514.261c0 27.499 22.123 49.621 49.6 49.621h759.637c27.499 0 49.621-22.123 49.621-49.621v-514.261zM217.707 482.283c0-28.672 23.232-51.883 51.883-51.883s51.883 23.211 51.883 51.883c0 28.651-23.232 51.883-51.883 51.883-28.672 0-51.883-23.211-51.883-51.883v0 0zM217.707 290.091c0-28.693 23.232-51.925 51.883-51.925s51.883 23.232 51.883 51.925c0 28.629-23.232 51.883-51.883 51.883-28.672-0.021-51.883-23.275-51.883-51.883v0 0z" />
<glyph unicode="&#xe937;" glyph-name="ic_read" d="M395.627 448c0-15.232 3.029-30.464 8.853-44.523 5.824-14.080 14.464-27.029 25.237-37.781s23.68-19.371 37.76-25.28c14.059-5.781 29.291-8.853 44.523-8.853s30.464 3.093 44.523 8.853 26.987 14.528 37.781 25.28c10.752 10.752 19.371 23.616 25.28 37.781 5.781 14.059 8.853 29.291 8.853 44.523s-3.093 30.464-8.853 44.523c-5.781 14.080-14.528 27.008-25.28 37.76-10.795 10.795-23.637 19.413-37.781 25.237-14.059 5.824-29.291 8.853-44.523 8.853s-30.464-3.029-44.523-8.853c-14.080-5.803-26.987-14.443-37.76-25.237-10.773-10.752-19.392-23.659-25.237-37.76-5.803-14.059-8.853-29.291-8.853-44.523v0zM512 806.933c-318.464 0-490.667-358.933-490.667-358.933s173.717-358.933 490.667-358.933c318.464 0 490.667 358.933 490.667 358.933s-173.76 358.933-490.667 358.933v0zM512 218.133c-126.976 0-229.888 102.912-229.888 229.867s102.912 229.867 229.888 229.867c126.955 0 229.867-102.912 229.867-229.867s-102.912-229.867-229.867-229.867v0z" />
<glyph unicode="&#xe938;" glyph-name="ic_report" d="M533.205 688.171c-11.541 0-19.968-8.427-19.968-19.968s8.427-19.989 19.968-19.989c24 0 46.784-9.643 68.011-29.333 21.205-19.648 31.787-43.989 31.787-72.981 0-9.984 8.448-19.968 20.011-19.968 11.584 0 20.011 9.963 20.011 19.968 0 43.349-13.995 77.675-42.368 103.552-28.48 25.92-60.949 38.72-97.451 38.72zM512 938.667c-270.997 0-490.667-219.669-490.667-490.667 0-270.976 219.669-490.667 490.667-490.667s490.667 219.691 490.667 490.667c0 270.997-219.669 490.667-490.667 490.667zM529.451 131.776c-11.563-5.013-24.619-5.013-36.181 0l-71.083 37.397h180.885l-73.621-37.397zM613.035 209.109h-199.595c-11.541 0-19.968 8.448-19.968 20.011 0 11.499 8.427 19.968 19.968 19.968h199.595c11.541 0 19.968-8.448 19.968-19.968 0-11.563-8.427-20.011-19.968-20.011zM750.293 500.992c-1.536-1.536-1.259-4.672-1.259-6.208l-3.755-22.464c-1.536 0-1.301-2.176-1.301-3.733-2.496-8.448-4.949-15.893-7.552-22.464v-1.28c0 0-0.341-0.299-1.28-1.259-3.392-9.045-6.571-17.152-9.984-23.701 0-0.917-0.341-1.259-1.259-1.259-4.053-8.427-8.747-16.213-13.781-23.659-4.907-7.509-10.219-14.997-16.213-22.485 0 0-0.384-0.32-0.597-0.64l-0.597-0.576c-4.949-5.888-10.965-11.477-17.451-17.408 0 0-0.597-0.384-1.877-1.301-3.115-2.219-3.392-4.011-6.848-7.509-1.536 0-3.733-0.939-3.733-2.496l-11.883-9.344-2.389-1.835-1.877-1.259c-7.531-5.909-12.843-12.459-16.277-20.011-3.349-7.531-6.528-12.864-9.963-16.277-3.435-3.371-9.664-4.928-18.731-4.928h-179.648c-9.045 0-15.275 1.557-18.709 4.928-3.435 3.413-6.869 8.747-10.624 16.277-3.755 7.552-9.024 13.973-15.573 20.011-0.939 0-1.579 0.32-2.517 1.259l-1.856 1.877-11.861 9.344-3.755 2.496-4.971 4.971c0 0-1.259 1.259-3.733 3.755l-17.472 17.472c0 0-0.32 0.299-0.619 0.576l-0.619 0.576c-11.541 14.976-21.525 29.717-29.931 46.144-0.96 0-1.28 0.405-1.28 1.323-3.413 6.571-6.528 14.677-9.963 23.637-0.917 0-1.259 0.341-1.259 1.259v1.28c-2.496 6.571-4.971 14.016-7.488 22.464 0 0-0.32 0.619-0.619 1.877l-0.619 1.856c-1.557 6.549-2.816 14.037-3.733 22.464 0 1.536-1.259 4.672-1.259 6.208-0.917 9.067-1.237 18.411-1.237 27.456 0 65.835 23.403 121.963 69.867 169.045 46.613 47.168 103.040 70.549 169.152 70.549 66.133 0 122.581-23.381 169.685-70.507 47.104-47.083 70.507-103.211 70.507-169.045 0-9.024-0.32-18.368-1.259-27.456z" />
<glyph unicode="&#xe939;" glyph-name="ic_resume" d="M687.979 294.187h-353.365c-13.013 0-23.552-10.944-23.552-24.405v-4.885c0-13.461 10.539-24.405 23.552-24.405h353.365c12.971 0 23.552 10.944 23.552 24.405v4.885c0.021 13.461-10.581 24.405-23.552 24.405v0zM512 938.667c-270.976 0-490.667-219.669-490.667-490.667s219.691-490.667 490.667-490.667c270.997 0 490.667 219.669 490.667 490.667s-219.669 490.667-490.667 490.667v0zM627.2 723.627c0 14.101 11.093 25.557 24.704 25.557 13.653 0 24.619-11.456 24.619-25.557v-68.736c0-14.123-11.093-25.557-24.619-25.557-13.696 0-24.704 11.435-24.704 25.557v68.736zM487.275 723.627c0 14.101 11.051 25.557 24.683 25.557s24.661-11.456 24.661-25.557v-68.736c0-14.101-11.051-25.557-24.661-25.557-13.653 0-24.683 11.456-24.683 25.557v68.736zM346.496 723.627c0 14.101 11.072 25.557 24.683 25.557 13.653 0 24.683-11.456 24.683-25.557v-68.736c0-14.123-11.051-25.557-24.683-25.557s-24.683 11.435-24.683 25.557v68.736zM779.627 667.456v-490.688c0-32.661-26.88-29.867-26.88-29.867h-480.576c-31.104 0-27.904 29.099-27.904 29.099v491.456c0 34.219 27.904 27.029 27.904 27.029s22.549 0.192 50.539 0c-3.904-96.619 38.869-92.331 48.469-92.331 71.040 2.325 59.605 92.331 59.605 92.331s5.461 0.192 28.011 0c-2.325-98.965 43.563-90.773 53.163-90.773 64.811 10.88 53.376 91.968 53.376 91.968s14.741 0.576 28.011 0c4.736-90.773 45.099-92.757 58.624-92.757 57.003 3.904 47.915 92.373 47.915 92.373s21.781 0.939 53.717-0.171c30.251 2.731 26.027-27.669 26.027-27.669v0zM687.979 414.699h-353.365c-13.013 0-23.552-10.987-23.552-24.448v-4.885c0-13.461 10.539-24.427 23.552-24.427h353.365c12.971 0 23.552 10.965 23.552 24.427v4.885c0.021 13.547-10.581 24.448-23.552 24.448v0zM689.493 535.253h-353.344c-12.992 0-23.552-10.923-23.552-24.384v-4.885c0-13.461 10.539-24.405 23.552-24.405h353.344c13.035 0 23.552 10.923 23.552 24.405v4.885c0.043 13.461-10.496 24.384-23.552 24.384v0z" />
<glyph unicode="&#xe93a;" glyph-name="ic_revise" d="M839.125-42.667h-654.229c-72.256 0-130.837 58.603-130.837 130.859v719.637c0 72.256 58.581 130.837 130.837 130.837h457.963v-65.408h-457.963c-36.117 0-65.408-29.291-65.408-65.429v-719.637c0-36.139 29.291-65.387 65.408-65.387h654.229c36.117 0 65.365 29.248 65.365 65.387v523.392h65.408v-523.392c0.085-72.256-58.475-130.859-130.773-130.859v0zM184.896 546.155h261.717v-65.429h-261.717v65.429zM708.288 284.459h-523.392v65.408h523.392v-65.408zM524.885 552.704l385.899 385.963 46.293-46.251-385.963-385.963-46.229 46.251z" />
<glyph unicode="&#xe93b;" glyph-name="ic_search" d="M975.659-15.659c-36.011-36.011-94.336-36.011-130.325 0l-162.645 162.667c-66.88-42.88-145.941-68.459-231.275-68.459-237.525 0-430.080 192.512-430.080 430.059 0 237.525 192.555 430.059 430.080 430.059s430.037-192.533 430.037-430.059c0-85.355-25.557-164.395-68.459-231.296l162.667-162.645c36.011-36.011 36.011-94.357 0-130.325v0zM451.413 815.787c-169.664 0-307.2-137.536-307.2-307.179s137.536-307.179 307.2-307.179c169.621 0 307.157 137.536 307.157 307.179 0.064 169.643-137.536 307.179-307.157 307.179v0z" />
<glyph unicode="&#xe93c;" glyph-name="ic_sent" d="M21.333 444.8l298.752-113.344 95.808-316.672 173.739 224.107 266.283-84.416 146.752 726.741-981.333-436.416zM479.211 298.965l-50.496-177.493-49.195 208.576 623.147 551.168-523.456-582.251z" />
<glyph unicode="&#xe93d;" glyph-name="ic_share" d="M789.291 278.336c-44.011 0-83.947-17.749-112.917-46.464l-211.477 122.091c11.989 26.048 18.624 54.912 18.624 85.419 0 37.035-9.856 71.787-27.093 101.781l217.344 125.504c29.205-30.208 70.123-49.003 115.456-49.003 88.597 0 160.469 71.808 160.469 160.469 0.085 88.661-71.808 160.533-160.405 160.533s-160.469-71.851-160.469-160.491c0-21.867 4.416-42.795 12.373-61.781l-221.781-128.085c-36.693 34.581-86.101 55.787-140.48 55.787-113.088 0-204.736-91.627-204.736-204.715 0-113.045 91.648-204.715 204.736-204.715 61.184 0 116.117 26.88 153.643 69.504l210.069-121.259c-8.832-19.925-13.781-41.92-13.781-65.088-0.043-88.619 71.829-160.491 160.448-160.491s160.491 71.872 160.491 160.491c-0.021 88.683-71.915 160.512-160.512 160.512zM789.291 902.656c68.501 0 124.032-55.531 124.032-123.989s-55.552-123.989-124.032-123.989c-68.416 0-123.968 55.531-123.968 123.989s55.552 123.989 123.968 123.989zM277.312 277.333c-88.384 0-160 71.616-160 160s71.616 160 160 160 160-71.616 160-160-71.616-160-160-160zM789.269-6.677c-68.416 0-123.968 55.552-123.968 124.011s55.552 123.968 123.968 123.968c68.501 0 124.032-55.509 124.032-123.968s-55.531-124.011-124.032-124.011z" />
<glyph unicode="&#xe93e;" glyph-name="ic_skill" d="M264.021 240.875h256.064c11.051-17.088 23.573-32.96 37.781-47.296h-293.845v47.296zM264.021 315.669h221.653c-4.48 15.253-7.723 31.040-9.685 47.253h-211.968v-47.253zM264.021 437.717h212.651c2.219 16.171 5.483 32.043 10.283 47.275h-222.933v-47.275zM677.355 120.832v-41.344c0-19.776-16.064-35.861-35.776-35.861h-537.195c-19.733 0-35.755 16.085-35.755 35.861v599.168l178.027 148.117v-157.248h-93.739v-47.275h140.992v230.059h347.648c19.733 0 35.776-16.085 35.776-35.797v-141.397c15.232 4.757 31.083 7.979 47.296 10.197v131.157c0.021 45.803-37.248 83.093-83.051 83.093h-381.419l-238.827-198.72v-621.333c0-45.781 37.248-83.093 83.051-83.093h537.195c45.781 0 83.072 37.248 83.072 83.093v31.168c-16.213 2.197-32.064 5.397-47.296 10.155v0zM199.851 484.949h-61.013v-47.275h61.013v47.275zM138.837 193.579h61.013v47.296h-61.013v-47.296zM199.851 362.923h-61.013v-47.253h61.013v47.253zM887.659 469.205l-37.547 28.757-95.424-124.48-85.781 65.771-28.821-37.525 123.349-94.571 124.224 162.048zM1002.667 397.952c0 131.669-107.115 238.763-238.784 238.763-131.627 0-238.677-107.115-238.677-238.763 0-131.669 107.115-238.741 238.699-238.741 131.648 0 238.763 107.072 238.763 238.741v0zM955.371 397.952c0-105.536-85.888-191.531-191.509-191.531-105.579 0-191.552 85.909-191.552 191.531 0 105.6 85.824 191.509 191.552 191.509 105.621 0 191.509-85.909 191.509-191.509v0z" />
<glyph unicode="&#xe93f;" glyph-name="ic_tick" d="M980.971 660.096l-528.853-528.875c-24.384-24.384-61.525-28.181-89.941-11.392-5.227 3.115-10.219 6.912-14.72 11.392 0 0.043 0 0.043 0 0.043l-304.448 304.427c-28.907 28.907-28.907 75.819 0 104.704 28.907 28.907 75.755 28.907 104.661 0l252.181-252.203 476.48 476.587c28.885 28.885 75.755 28.885 104.64 0 28.928-28.885 28.928-75.797 0-104.683v0z" />
<glyph unicode="&#xe940;" glyph-name="ic_topic" d="M494.272 573.333c-9.771 0-17.707-8.021-17.707-17.899 0-9.899 7.915-17.92 17.707-17.92s17.728 8.021 17.728 17.92c0 9.877-7.936 17.899-17.728 17.899zM706.923 573.333c-9.792 0-17.707-8.021-17.707-17.899 0-9.899 7.893-17.92 17.707-17.92 9.792 0 17.707 8.021 17.707 17.92 0 9.877-7.915 17.899-17.707 17.899zM618.283 555.435c0-9.885-7.928-17.899-17.707-17.899s-17.707 8.014-17.707 17.899c0 9.885 7.928 17.899 17.707 17.899s17.707-8.014 17.707-17.899zM512 938.667c-270.997 0-490.667-219.691-490.667-490.667s219.669-490.667 490.667-490.667c270.976 0 490.667 219.691 490.667 490.667s-219.691 490.667-490.667 490.667zM618.283 286.827c0-19.755-15.872-35.797-35.413-35.797h-212.629l-70.869-71.616v71.616h-35.435c-19.584 0-35.435 16.043-35.435 35.797v250.667c0 19.797 15.851 35.819 35.435 35.819h106.304v-179.072c0-19.861 15.851-35.904 35.435-35.904h212.608v-71.509zM795.499 430.101c0-19.819-15.872-35.819-35.435-35.819h-35.435v-71.616l-70.869 71.616h-212.587c-19.584 0-35.435 16-35.435 35.819v250.667c0 19.776 15.851 35.819 35.435 35.819h318.933c19.563 0 35.435-16.043 35.435-35.819l-0.043-250.667z" />
<glyph unicode="&#xe941;" glyph-name="ic_totop" d="M862.464 798.464h-700.928c-30.976 0-56.085 25.109-56.085 56.085v28.053c0 30.955 25.109 56.064 56.085 56.064h700.907c30.976 0 56.107-25.109 56.107-56.064v-28.032c0-30.997-25.109-56.107-56.085-56.107v0 0zM138.517 428.309c0 0 306.816 245.803 309.888 248.853 14.293 13.888 31.893 22.357 49.941 25.323 1.749 0.32 3.499 0.597 5.248 0.789 2.816 0.32 5.589 0.363 8.384 0.341 2.816 0.021 5.568-0.021 8.363-0.341 1.792-0.192 3.541-0.491 5.291-0.789 18.048-2.965 35.627-11.413 49.92-25.323 3.115-3.008 309.845-248.853 309.845-248.853 33.152-32.235 30.293-65.429-2.795-97.685-33.109-32.256-77.376-3.051-110.485 29.205l-190.080 150.443v-496.853c0-30.997-25.088-56.107-56.085-56.107h-28.011c-30.976 0-56.085 25.109-56.085 56.107v496.853l-190.037-150.421c-33.088-32.277-77.419-61.525-110.485-29.227-33.045 32.256-35.883 65.451-2.816 97.685v0 0z" />
<glyph unicode="&#xe942;" glyph-name="ic_voice" d="M835.925 650.325c-16.299 0-29.483-13.717-29.483-30.677 0-1.856-0.043-154.517-0.064-158.763-2.581-164.352-134.677-298.048-294.357-298.048-160.405 0-292.437 134.293-294.4 299.243-0.043 4.437-0.043 156.16-0.043 157.568 0 16.96-13.163 30.677-29.461 30.677-16.256 0-29.419-13.717-29.419-30.677 0-1.387 0-157.141 0.021-158.251 2.219-188.267 144.917-343.189 323.883-358.677 0-0.299-0.021-0.576-0.021-0.96v-83.115h-133.824c-16.277 0-29.461-13.739-29.461-30.677 0-16.917 13.163-30.677 29.461-30.677h326.592c16.277 0 29.419 13.76 29.419 30.677 0 16.96-13.141 30.677-29.419 30.677h-133.909v83.115c0 0.384 0 0.661-0.043 0.96 178.219 15.509 320.853 169.707 323.861 357.12 0 1.899 0.043 157.909 0.043 159.808 0.043 16.981-13.141 30.677-29.376 30.677v0 0zM512.043 938.688c-112 0-203.157-94.101-203.157-209.728v-265.003c0-115.605 91.157-209.728 203.157-209.728s203.157 94.123 203.157 209.728v265.003c0 115.648-91.157 209.728-203.157 209.728zM656.341 463.957c0-81.813-64.747-148.395-144.299-148.395s-144.299 66.581-144.299 148.395v265.003c0 81.813 64.725 148.395 144.299 148.395 79.552 0 144.299-66.581 144.299-148.395v-265.003z" />
<glyph unicode="&#xe943;" glyph-name="ic_warm" d="M449.195 682.624c-0.064 19.2 15.637 34.987 34.816 35.051l55.019 0.171c19.136 0.107 34.901-15.531 34.987-34.752l0.811-242.219c0.064-19.157-15.552-35.008-34.795-35.093l-54.955-0.171c-19.179-0.128-34.965 15.552-35.051 34.752l-0.832 242.261zM449.429 267.925c-0.085 19.157 15.637 35.093 34.795 35.115l54.997 0.128c19.243 0.085 35.072-15.552 35.115-34.752l0.213-54.912c0.085-19.157-15.573-35.008-34.795-35.115l-54.997-0.213c-19.157-0.085-34.965 15.573-35.051 34.795l-0.277 54.955z" />
<glyph unicode="&#xe944;" glyph-name="ic_warming" d="M513.664-42.688c271.019 0.939 489.899 221.376 489.003 492.416-0.96 270.976-221.397 489.813-492.373 488.96-270.912-0.939-489.856-221.333-488.96-492.288 0.96-271.083 221.397-489.941 492.331-489.088v0 0zM448.768 682.603c-0.064 19.221 15.637 34.987 34.816 35.051l55.019 0.171c19.136 0.107 34.901-15.531 34.987-34.752l0.811-242.219c0.064-19.136-15.552-34.987-34.795-35.072l-54.955-0.171c-19.179-0.107-34.965 15.552-35.051 34.752l-0.832 242.24zM450.176 267.925c-0.085 19.136 15.637 35.051 34.795 35.115l54.997 0.128c19.243 0.064 35.051-15.552 35.115-34.773l0.213-54.912c0.085-19.157-15.573-34.987-34.795-35.093l-54.997-0.213c-19.157-0.085-34.965 15.573-35.051 34.795l-0.277 54.955z" />
<glyph unicode="&#xe945;" glyph-name="ic_wechat" d="M685.589 605.888c11.264 0 22.379-0.853 33.536-2.091-30.059 139.989-179.648 243.925-350.464 243.925-190.933 0-347.328-130.048-347.328-295.339 0-95.381 52.011-173.717 138.987-234.517l-34.709-104.448 121.429 60.885c43.413-8.469 78.251-17.344 121.621-17.344 10.923 0 21.717 0.448 32.384 1.301-6.72 23.253-10.731 47.552-10.731 72.875 0.064 151.637 130.325 274.752 295.275 274.752v0zM498.88 700.032c26.24 0 43.477-17.237 43.477-43.328 0-26.027-17.237-43.435-43.477-43.435-25.941 0-52.053 17.408-52.053 43.435-0.021 26.197 26.048 43.328 52.053 43.328v0zM255.808 613.269c-26.069 0-52.309 17.408-52.309 43.435 0 26.133 26.24 43.328 52.309 43.328s43.349-17.173 43.349-43.328c0-26.027-17.28-43.435-43.349-43.435v0zM1002.667 335.189c0 138.859-139.008 252.011-295.083 252.011-165.291 0-295.381-113.216-295.381-252.011 0-139.179 130.155-252.011 295.381-252.011 34.603 0 69.504 8.597 104.213 17.344l95.253-52.224-26.133 86.805c69.76 52.395 121.749 121.771 121.749 200.085v0zM611.797 378.667c-17.237 0-34.709 17.216-34.709 34.731 0 17.323 17.472 34.709 34.709 34.709 26.368 0 43.477-17.387 43.477-34.709 0-17.515-17.109-34.731-43.477-34.731v0zM802.837 378.667c-17.109 0-34.496 17.216-34.496 34.731 0 17.323 17.344 34.709 34.496 34.709 26.176 0 43.499-17.387 43.499-34.709 0-17.515-17.387-34.731-43.499-34.731v0z" />
<glyph unicode="&#xe946;" glyph-name="ic_weibo" d="M748.117 458.368c-38.208 7.424-19.627 27.968-19.627 27.968s37.333 61.547-7.488 106.304c-55.445 55.445-190.208-7.040-190.208-7.040-51.413-15.979-37.781 7.275-30.507 46.869 0 46.635-15.979 125.547-153.024 78.912-136.96-46.891-254.571-211.093-254.571-211.093-81.792-109.141-70.955-193.472-70.955-193.472 20.437-186.197 218.24-237.269 372.096-249.344 161.899-12.757 380.373 55.744 446.677 196.459 66.283 141.035-54.101 196.8-92.395 204.437v0zM405.931 109.909c-160.683-7.509-290.581 73.109-290.581 180.373 0 107.328 129.899 193.387 290.581 200.853 160.875 7.445 290.987-58.837 290.987-165.995 0-107.221-130.219-207.893-290.987-215.232v0zM373.888 420.437c-161.664-18.944-142.955-170.304-142.955-170.304s-1.664-47.957 43.328-72.363c94.592-51.221 191.957-20.203 241.173 43.328s20.267 218.112-141.547 199.339v0zM333.099 207.936c-30.165-3.563-54.485 13.845-54.485 39.104 0 25.131 21.589 51.435 51.797 54.635 34.667 3.264 57.216-16.661 57.216-41.941-0.021-25.152-24.491-48.405-54.528-51.797v0zM428.373 289.088c-10.219-7.616-22.784-6.571-28.16 2.581-5.653 8.917-3.541 23.253 6.805 30.741 11.989 8.939 24.427 6.357 29.824-2.581 5.376-9.131 1.536-22.848-8.469-30.741v0zM826.816 523.904c13.013 0 24.107 9.621 25.984 22.208 0.256 0.917 0.427 1.771 0.427 2.816 19.712 177.493-145.451 146.965-145.451 146.965-14.677 0-26.368-11.861-26.368-26.667 0-14.571 11.755-26.411 26.368-26.411 118.677 26.197 92.459-92.459 92.459-92.459-0.085-14.699 11.84-26.453 26.581-26.453v0zM807.552 833.707c-57.109 13.397-115.84 1.877-132.288-1.301-1.28-0.128-2.411-1.323-3.627-1.557-0.491-0.128-0.917-0.704-0.917-0.704-16.256-4.565-28.032-19.605-28.032-37.355 0-21.141 17.173-38.528 38.592-38.528 0 0 20.8 2.773 34.88 8.299 13.995 5.653 132.245 4.203 190.997-94.464 32.085-72.021 14.123-120.192 11.861-127.979 0 0-7.595-18.709-7.595-37.12 0-21.269 17.131-34.624 38.379-34.624 17.792 0 32.661 2.411 37.035 32.448h0.256c62.912 210.24-77.333 309.056-179.541 332.885v0z" />
<glyph unicode="&#xe947;" glyph-name="ic_briefcase" d="M418.56 460.011h186.944v-72.277h-186.944v72.277zM652.224 339.584h-280.405v48.832h-327.083v-317.504c0-37.867 30.549-68.587 68.715-68.587h797.163c37.931 0 68.736 30.955 68.736 68.587v317.504h-327.125v-48.832zM957.781 773.184h-258.859c0 66.496-83.691 120.448-186.901 120.448-103.253 0-186.944-53.952-186.944-120.448h-258.837c-37.696 0-68.245-30.549-68.245-68.245v-200.747c0-37.717 30.763-68.203 68.245-68.203h305.579v72.256h280.427v-72.256h305.557c37.696 0 68.224 30.507 68.224 68.203v200.747c0 37.717-30.763 68.245-68.245 68.245v0zM371.819 773.184c0 39.915 62.763 72.256 140.203 72.256s140.203-32.341 140.203-72.256h-280.405z" />
<glyph unicode="&#xe948;" glyph-name="ic_college_graduate" d="M955.499 522.496v-169.216l33.771-35.776-70.251-77.269-71.083 75.136 48.704 46.827v133.589c-206.613-90.197-273.067-118.144-318.741-140.032-45.781-21.781-78.784-21.653-124.309-3.648-45.419 18.197-261.824 101.76-369.323 156.053-71.659 36.288-76.267 59.307 1.28 90.155 101.184 40.576 268.437 105.643 357.099 141.291 52.416 22.379 80.256 34.667 128.427 9.045 85.952-37.611 282.581-115.541 380.395-158.208 85.077-39.296 27.861-52.16 4.032-67.947v0 0zM587.904 288.939c49.941 21.76 117.312 57.771 190.677 91.157v-115.072c0 0-94.933-106.795-261.931-106.795-179.968 0-277.056 106.795-277.056 106.795v97.237c56.725-24.491 120.363-45.461 197.419-73.344 47.531-17.92 107.84-24.171 150.891 0.021v0 0z" />
<glyph unicode="&#xe949;" glyph-name="ic_Hiring" d="M793.152 406.891c18.411-6.4 35.605-13.632 51.968-22.763 63.211-35.371 109.611-86.187 138.709-152.512 20.16-46.059 27.797-94.379 25.152-144.491-0.853-15.829-8.917-26.752-22.123-29.867-19.2-4.544-36.437 10.603-35.115 30.869 3.691 55.744-8.469 107.797-38.315 155.029-39.787 62.976-96.384 102.485-169.6 117.824-11.264 2.347-22.763 3.115-34.133 4.885-12.885 2.048-22.891 12.565-23.851 24.896-1.088 13.973 6.464 25.856 19.349 30.037 33.941 11.051 61.291 31.488 83.413 59.008 23.253 28.907 36.715 62.123 39.531 99.072 3.968 52.331-11.029 98.837-45.824 138.517-26.581 30.315-59.925 49.472-99.115 58.432-16.32 3.691-33.024 4.331-49.728 4.416-13.461 0.021-24.427 9.003-27.136 21.696-3.691 17.045 8.64 32.021 27.221 32.768 35.584 1.451 70.080-4.181 102.656-18.603 73.771-32.619 122.368-87.787 140.693-166.421 19.349-82.88-1.6-156.523-58.965-219.605-3.691-4.032-7.744-7.829-11.733-11.605-4.032-3.755-8.213-7.296-13.056-11.584v0zM402.005 313.045c13.525-23.019 26.603-45.269 39.68-67.477 17.984-30.549 35.904-61.099 53.973-91.584 1.813-3.072 1.771-4.715-0.896-7.275-29.909-29.248-59.669-58.645-89.387-88.043-2.603-2.603-4.011-3.051-6.869-0.192-29.803 29.589-59.733 59.029-89.728 88.427-2.091 2.133-2.816 3.541-1.088 6.443 30.827 52.117 61.483 104.299 92.181 156.501 0.533 0.853 1.088 1.643 2.133 3.2v0zM779.733 85.163c-3.904 23.232-9.344 46.101-17.6 68.203-38.464 103.253-107.819 177.899-207.979 223.957-10.133 4.672-20.523 8.555-31.445 12.416 65.088 41.643 105.728 99.285 116.629 175.744 10.837 76.416-10.475 144-62.635 200.725-97.6 106.197-263.723 105.579-360.555-1.195-49.6-54.699-70.613-119.851-61.803-193.195 9.451-79.104 50.56-138.859 117.184-181.675-1.131-1.515-2.965-1.643-4.523-2.176-9.899-3.499-19.605-7.403-29.12-11.776-74.944-34.453-133.419-87.147-175.296-158.144-24.064-40.832-39.637-84.821-47.488-131.563-2.453-14.549 3.221-27.264 15.403-32.725 14.443-6.549 29.269-3.093 38.549 8.555 4.864 6.101 6.101 13.397 7.509 20.587 13.44 69.163 44.736 128.875 96.512 176.619 86.208 79.488 187.755 106.795 301.717 80.085 92.117-21.611 161.024-76.331 207.936-158.507 19.051-33.344 30.293-69.44 37.312-107.051 2.944-15.765 19.051-25.899 35.627-22.869 15.531 2.795 26.624 18.389 24.064 33.984v0zM397.355 411.563c-105.813 0.277-189.163 85.461-188.843 189.163 0.32 104.619 85.013 188.949 188.885 188.693 104.107-0.256 188.757-85.035 188.693-188.992-0.085-104.085-84.629-189.12-188.736-188.864v0z" />
<glyph unicode="&#xe94a;" glyph-name="ic_hr" d="M109.013 10.944v392.64h211.776v-392.64h108.117v897.728h-108.117v-353.237h-211.776v353.237h-108.096v-897.749l108.096 0.021zM649.088 10.944v374.848h21.888c24.811 0 42.923-3.349 54.379-10.069 11.499-6.784 22.293-19.2 32.555-37.355 10.176-18.176 29.163-62.101 56.939-131.904l78.165-195.392h129.195l-65.323 175.211c-25.856 69.803-46.379 118.293-61.504 145.621-15.275 27.371-34.581 52.587-57.899 75.328 46.891 11.499 82.261 39.040 105.877 83.029 23.616 43.733 35.413 99.435 35.413 166.699 0 53.077-7.808 100.224-23.403 141.483-15.616 41.28-36.288 69.931-62.251 86.165-25.941 15.936-67.52 24.043-124.715 24.043h-227.456v-897.749l108.139 0.043zM649.088 756.885h84.352c43.819 0 70.016-0.981 78.848-3.029 17.515-4.928 31.104-16.64 40.661-35.285 9.621-18.539 14.485-42.923 14.485-73.173 0-26.944-3.712-49.344-11.008-67.392-7.275-17.899-17.408-30.592-30.293-37.867-12.949-7.403-45.248-11.093-97.109-11.093h-79.957v227.84h0.021z" />
<glyph unicode="&#xe94b;" glyph-name="ic_location2" d="M512 938.667c-203.627 0-368.725-164.8-368.725-368.021s368.725-613.312 368.725-613.312 368.725 410.091 368.725 613.312c0 203.221-165.099 368.021-368.725 368.021v0zM733.248 570.645c0-121.92-99.093-220.821-221.248-220.821-122.176 0-221.248 98.88-221.248 220.821 0 121.963 99.051 220.821 221.248 220.821 122.219 0 221.248-98.859 221.248-220.821v0z" />
<glyph unicode="&#xe94c;" glyph-name="ic_Plus" d="M512 931.776c-266.731 0-483.776-216.981-483.776-483.797 0-266.752 217.024-483.755 483.776-483.755 266.795 0 483.776 217.003 483.776 483.755 0 266.816-217.024 483.797-483.776 483.797v0zM732.928 399.637h-172.651v-172.544c0-26.645-21.568-48.448-48.299-48.448-26.645 0-48.256 21.781-48.256 48.448v172.544h-172.693c-26.709 0-48.384 21.739-48.384 48.384 0 26.709 21.675 48.341 48.384 48.341h172.693v172.608c0 26.709 21.632 48.341 48.256 48.341 26.731 0 48.299-21.632 48.299-48.341v-172.608h172.651c26.752 0 48.384-21.632 48.384-48.341 0.043-26.688-21.632-48.384-48.384-48.384v0z" />
<glyph unicode="&#xe94d;" glyph-name="ic_qq" d="M60.544 368.875c-38.251-90.091-44.501-176-13.76-192.043 21.163-11.115 54.379 14.080 85.504 60.331 12.331-50.368 42.752-95.957 86.293-132.587-45.675-16.875-75.456-44.331-75.456-75.541 0-51.285 80.661-92.843 180.245-92.843 89.792 0 164.16 33.749 177.92 77.995 3.669 0.085 17.835 0.085 21.419 0 13.781-44.203 88.213-77.995 178.005-77.995 99.541 0 180.245 41.579 180.245 92.843 0 31.125-29.824 58.667-75.499 75.541 43.456 36.629 74.048 82.219 86.336 132.587 31.040-46.251 64.171-71.467 85.376-60.331 30.741 16.043 24.704 102.016-13.675 192.043-30.080 70.805-70.955 122.923-102.123 134.464 0.448 4.459 0.704 9.067 0.704 13.632 0 27.328-7.573 52.629-20.629 73.216 0.256 1.6 0.256 3.243 0.256 4.843 0 12.587-3.008 24.405-8.085 34.603-7.872 184.043-127.701 330.155-321.621 330.155-194.005 0-313.835-146.133-321.664-330.197-5.12-10.261-8.128-22.059-8.128-34.603 0-1.579 0.128-3.221 0.171-4.843-12.885-20.587-20.459-45.824-20.459-73.216 0-4.565 0.128-9.109 0.533-13.632-30.955-11.499-71.915-63.701-101.909-134.421v0z" />
<glyph unicode="&#xe94e;" glyph-name="ic_tel" d="M984.704 642.667c-26.005 62.101-63.125 117.611-111.573 166.4-48.213 48.619-103.339 85.589-165.781 111.339-62.336 25.813-127.552 38.699-195.925 38.699-67.989 0-132.992-12.885-195.307-38.869-62.528-26.005-117.589-63.104-165.632-111.147-47.872-47.637-84.779-102.912-110.741-165.803-26.176-63.083-39.275-128.128-39.275-195.285 0-58.965 8.939-113.877 26.944-164.096 17.984-50.411 44.352-95.296 79.531-134.592 7.189-8.384 14.421-14.827 21.483-19.115 7.040-4.459 13.653-6.677 19.712-6.677 1.92 0 4.885 0.576 8.597 1.408 3.904 0.96 8.619 2.496 14.272 4.245-44.523 56.256-76.8 109.205-96.299 159.381-19.755 50.24-29.504 103.339-29.504 159.424 0 61.547 11.925 120.683 35.52 177.92 23.659 57.259 57.429 107.797 101.227 151.701 43.968 43.797 94.315 77.589 151.403 101.227 57.003 23.616 116.395 35.541 178.304 35.541 62.144 0 121.515-11.691 177.963-35.136s106.667-57.408 150.955-101.589c44.011-43.968 77.76-94.336 101.589-151.36 23.829-57.067 35.755-116.395 35.755-178.155 0-61.141-11.925-120.299-35.755-177.728s-57.621-107.84-101.589-151.381c-43.968-43.968-94.336-77.76-151.552-101.589s-116.437-35.712-177.387-35.712c-74.816 0-134.763 11.883-179.691 35.925-45.099 24.043-67.563 55.659-67.563 94.549 0 8.427 1.557 16.619 4.459 24.576 3.136 8.043 8.021 16.427 15.083 25.579 6.805-6.464 12.885-11.115 18.581-14.251 5.419-3.115 10.347-4.544 14.635-4.544 6.848 0 17.195 5.909 31.445 17.621 14.037 11.925 28.139 26.965 42.176 45.333 11.541 15.573 21.269 33.216 29.461 52.907 8.235 19.541 12.331 32 12.331 37.547 0 3.243-4.885 10.667-14.421 22.208-9.771 11.541-14.677 23.083-14.677 35.008 0 15.616 4.437 36.331 13.44 61.867 8.981 25.771 21.867 56.469 39.083 92.011 19.925 40.064 35.925 68.16 48.448 84.373 12.309 16.213 25.024 26.56 38.101 31.083 2.944 1.195 8 2.176 14.827 2.965 22.485 2.325 39.296 12.096 50.411 29.099 10.133 17.152 19.115 39.232 26.752 66.219 7.659 26.752 11.499 49.579 11.499 68.352 0 15.253-2.325 25.536-7.211 30.848-4.672 5.269-14.635 8.021-30.059 8.021-24 0-44.352-1.792-61.141-5.12-16.811-3.499-29.483-8.363-38.293-14.997-10.731-7.637-27.733-26.219-51.157-56.085-23.445-29.696-47.488-63.68-71.893-101.76-44.544-69.76-81.237-144.128-109.803-223.061-28.693-79.125-42.965-138.325-42.965-177.92 0-7.829 1.771-15.829 5.099-24.427 3.499-8.661 9.557-19.968 18.325-34.005-11.904-14.869-20.693-29.675-26.368-44.16-5.653-14.421-8.597-29.077-8.597-43.968 0-49.216 26.581-89.408 79.509-120.661 53.099-31.232 123.029-46.848 209.963-46.848 66.816 0 131.669 13.077 194.965 39.296 63.083 25.963 118.741 62.869 166.784 110.699 48.043 48.043 85.163 103.552 111.125 166.421 26.176 62.869 39.253 128.128 39.253 195.669 0 67.605-12.885 132.459-38.848 194.581v0zM650.837 606.933c10.219-2.56 18.176-3.883 24.256-3.883 15.616 0 30.699 14.421 45.333 43.52 14.421 28.907 21.717 58.389 21.717 88.661 0 17.365-4.501 31.061-13.717 40.811-9.173 9.749-28.117 19.947-56.619 30.677 0-37.099-5.291-71.701-15.424-103.936-10.368-32.192-25.003-60.117-44.117-83.776 15.573-5.248 28.437-9.365 38.571-12.075v0zM454.763 287.744c-8.021-32.427-21.269-62.080-40.256-89.045-18.965-26.795-42.773-50.752-71.851-71.701 13.44-8.789 25.195-15.424 35.541-20.117 10.347-4.459 18.773-6.827 25.216-6.827 21.312 0 43.776 15.829 67.371 47.467 23.851 31.616 35.563 59.157 35.563 82.411 0 8.789-3.541 17.216-10.56 25.408-7.019 8.235-20.693 18.944-41.024 32.405v0z" />
<glyph unicode="&#xe94f;" glyph-name="ic_triangle" d="M836.501 448l-649.003 512v-1024l649.003 512z" />
<glyph unicode="&#xe950;" glyph-name="center_ic_job" d="M929.052 743.993h-188.345v80.697c0 44.587-36.139 80.725-80.725 80.725h-322.873c-44.587 0-80.725-36.139-80.725-80.725v-80.711h-161.436c-44.587 0.014-80.725-36.124-80.725-80.711v-591.957c0-44.587 36.139-80.725 80.725-80.725h834.105c44.601 0 80.725 36.139 80.725 80.725v591.957c0 44.587-36.124 80.725-80.725 80.725v0zM310.201 797.796c0 29.71 24.107 53.817 53.803 53.817h269.070c29.71 0 53.803-24.107 53.803-53.817v-53.803h-376.676v53.803zM955.975 98.204c0-29.696-24.107-53.803-53.817-53.803h-780.316c-29.696 0-53.817 24.107-53.817 53.803v269.070h403.612v-13.44c0-22.3 18.076-40.363 40.348-40.363s40.363 18.062 40.363 40.363v13.44h403.612v-269.070h0.014zM955.975 421.092h-403.612v67.257c0 22.272-18.076 40.363-40.363 40.363s-40.348-18.076-40.348-40.363v-67.257h-403.612v215.253c0 29.71 24.107 53.817 53.817 53.817h780.302c29.71 0 53.817-24.107 53.817-53.817v-215.253z" />
</font>
</defs>
</svg>
